<?xml version="1.0" standalone="no"?>
<!DOCTYPE svg PUBLIC "-//W3C//DTD SVG 1.1//EN" "http://www.w3.org/Graphics/SVG/1.1/DTD/svg11.dtd" >
<svg xmlns="http://www.w3.org/2000/svg">
<metadata>
This is a custom SVG webfont generated by Font Squirrel.
Copyright   : Copyright c  M Klein   9031104
</metadata>
<defs>
<font id="webfontNPsZNH0G" horiz-adv-x="802" >
<font-face units-per-em="2048" ascent="1638" descent="-410" />
<missing-glyph horiz-adv-x="522" />
<glyph unicode="&#xd;" horiz-adv-x="376" d="M172 0l119 846h-84l-119 -846h84z" />
<glyph horiz-adv-x="741" d="M608 1087l-30 46q-84 -76 -185 -76q-106 0 -174 80l-51 -50q74 -90 209 -90q141 0 231 90z" />
<glyph horiz-adv-x="636" d="M463 1083q-6 68 -60 68q-70 -12 -75 -68q-2 -31 12 -49q20 -18 45 -18q66 -1 78 67z" />
<glyph horiz-adv-x="606" d="M483 1102q8 66 -34 119q-43 51 -111 51q-70 0 -127 -51q-59 -53 -67.5 -119t34.5 -119q43 -51 111 -51q70 0 127 51q59 53 67 119zM440 1104q-6 -49 -51 -88q-41 -39 -94 -39q-49 0 -82 39t-27 88q6 45 52 88q45 39 94 39t81.5 -39t26.5 -88z" />
<glyph unicode="&#xa;" horiz-adv-x="1050" d="M981 422q25 186 -84 311q-106 125 -291 125q-217 0 -373 -172l117 830h-84l-270 -1913h84l78 555q113 -172 325 -172q182 0 328 127q141 121 170 309zM899 422q-20 -145 -139 -252q-121 -102 -266 -102q-143 0 -236 104q-90 104 -68 250q18 145 138 252q121 102 266 102 t235 -104q88 -105 70 -250z" />
<glyph horiz-adv-x="542" d="M383 -258l10 82l-51 -31q-31 -12 -51 -12q-35 0 -47 20q-10 31 -4 54q2 16 7 33.5t13 33.5l51 78h-94q-51 -74 -53 -86l-17 -45l-8 -45q-6 -59 21 -94q31 -37 84 -37l41 4l39 12q23 6 36 14.5t23 18.5z" />
<glyph horiz-adv-x="774" d="M647 1145l-37 45l-233 -203l-176 203l-49 -45l213 -246z" />
<glyph horiz-adv-x="1683" d="M1528 -207l-283 330q319 209 375 608q49 330 -133 543q-182 209 -514 209q-334 0 -572 -211q-238 -207 -286 -541q-45 -332 135 -543q178 -209 512 -208q221 0 409 100l244 -287h113zM1475 508q-90 -199 -283 -324l-234 271h-108l266 -312q-160 -80 -342 -80 q-295 0 -454.5 188.5t-120.5 479.5q43 297 256 481q217 188 506 189q299 0 456 -189q154 -178 123 -458q-6 6 -8 10q-45 51 -113 51t-125 -51t-69 -119q-8 -66 35 -119q45 -51 112 -51q56 0 103 33zM1524 659q-4 -12 -6 -25t-7 -26q-16 -29 -38 -49q-45 -39 -95 -39 q-51 0 -82 39q-35 41 -26 88q6 49 51 88q41 39 92 39t84 -39q29 -37 27 -76zM827 645q12 66 -32 119q-45 51 -113 51t-125 -51t-70 -119q-8 -66 35 -119q45 -51 113 -51t125 51q59 53 67 119zM786 647q-8 -49 -51 -88q-45 -39 -94 -39q-51 0 -82 39q-35 41 -27 88 q6 49 52 88q41 39 92 39t83.5 -39t26.5 -88zM629 612q-2 -18 9 -31.5t30 -13.5q18 0 33.5 13.5t17.5 31.5q4 18 -8.5 31.5t-30.5 13.5t-32.5 -13.5t-18.5 -31.5zM1368 606q-4 -18 8.5 -31.5t30.5 -13.5t32.5 13.5t18.5 32t-8 31.5t-31 13q-18 0 -32.5 -13.5t-18.5 -31.5z " />
<glyph horiz-adv-x="964" d="M905 762l13 84h-259l68 485q12 94 -53 148q-59 49 -156 49q-98 0 -172 -55q-74 -53 -90 -152l-66 -475h-114l-13 -84h115l-106 -762h84l106 762h303l-106 -762h82l106 762h258zM578 846h-304l64 461q23 139 170 139q154 0 135 -135z" />
<glyph horiz-adv-x="940" d="M979 1425l10 80l-51 8q-8 2 -20.5 3.5t-30.5 1.5q-57 0 -119 -29q-70 -35 -82 -90q-45 76 -174 76q-104 0 -178 -62q-74 -63 -86 -166l-58 -401h-114l-13 -84h115l-106 -762h84l106 762h313l-106 -762h82l106 762h201l12 84h-200l65 461q8 76 53 106q33 25 86 25l66 -6z M588 846h-314l56 391q20 156 170 156q57 0 98 -27q41 -25 53 -68z" />
<glyph horiz-adv-x="1171" d="M563 291l166 1171h-84l-164 -1167q-35 -227 -186 -227q-96 0 -139 94l-78 -45q53 -133 207 -133q235 0 278 307zM463 1260q8 66 -35 118q-43 51 -113 52q-68 0 -125 -52q-59 -53 -67 -118q-10 -70 35 -119q43 -51 110 -51q70 0 127 51q60 53 68 119zM420 1262 q-6 -45 -51 -88q-45 -39 -95 -39q-49 0 -81.5 38.5t-26.5 88.5q6 45 51 88q41 39 94 39q49 0 82 -39t27 -88zM1200 1260q8 66 -35 118q-43 51 -112 52q-68 0 -125 -52q-59 -53 -68 -118q-10 -70 35 -119q43 -51 111 -51q70 0 127 51q59 53 67 119zM1157 1262q-6 -45 -51 -88 q-45 -39 -94 -39t-82 38.5t-27 88.5q6 45 51 88q41 39 95 39q49 0 81.5 -39t26.5 -88zM264 1227q-4 -18 7.5 -31.5t29.5 -13.5q20 0 34.5 13t18.5 32q2 18 -9 31.5t-30 13.5q-18 0 -33.5 -13.5t-17.5 -31.5zM1001 1221q-4 -18 8.5 -31.5t30.5 -13.5t32.5 13t19 31.5t-8 32 t-30.5 13.5t-33 -13.5t-19 -31.5z" />
<glyph horiz-adv-x="1531" d="M-31 -20h1028l13 83h-873l1075 1346l-61 53zM664 1055q10 70 -35 119q-43 51 -111 51q-70 0 -127 -51q-59 -53 -67.5 -119t34.5 -119q43 -51 111 -51q70 0 127 51q60 53 68 119zM621 1057q-6 -49 -52 -88q-41 -39 -94 -39q-49 0 -82 39t-26 88q6 45 51 88q45 39 94 39 t82 -39t27 -88zM1401 1055q10 70 -35 119q-43 51 -111 51q-70 0 -127 -51q-59 -53 -67 -119t35 -119q43 -51 110 -51q70 0 127 51q60 53 68 119zM1358 1057q-6 -49 -51 -88q-41 -39 -95 -39q-49 0 -81.5 39t-26.5 88q6 45 51 88q45 39 94 39t82 -39t27 -88zM465 1022 q-4 -18 8 -31.5t31 -13.5q18 0 32.5 13.5t18.5 31.5t-8 31.5t-31 13.5q-18 0 -32.5 -13.5t-18.5 -31.5zM1202 1016q-2 -18 9.5 -31.5t29.5 -13.5t33.5 13t17.5 32q4 18 -7 31.5t-32 13.5q-18 0 -32.5 -13.5t-18.5 -31.5zM879 -285l-31 45q-84 -76 -184 -75q-106 0 -175 79 l-51 -49q72 -90 209 -90q142 0 232 90z" />
<glyph horiz-adv-x="1683" d="M1608 731q55 379 -189 594l103 123l-68 47l-100 -119q-164 106 -393 107q-334 0 -572 -211q-242 -209 -287 -541q-25 -182 25 -338q53 -168 178 -266l-98 -119l65 -49l99 119q168 -98 379 -98q334 0 571 210q242 209 287 541zM1296 1307l-931 -1110q-109 88 -156 225 t-23 309q43 297 256 481q213 188 506 189q192 0 348 -94zM1528 764q0 -12 -4 -33q-39 -293 -254 -483q-213 -184 -510 -185q-184 0 -330 84l930 1108q127 -115 160 -274q-39 39 -101 39q-68 0 -125 -51t-69 -119q-8 -66 35 -119q45 -51 112 -51q68 0 125 51q21 17 31 33z M1524 852q-8 -49 -51 -88q-45 -39 -95 -39q-51 0 -82 39q-35 41 -26 88q6 49 51 88q41 39 92 39t84 -39t27 -88zM827 850q12 66 -32 119q-45 51 -113 51t-125 -51t-70 -119q-8 -66 35 -119q45 -51 113 -51t125 51q59 53 67 119zM786 852q-8 -49 -51 -88q-45 -39 -94 -39 q-51 0 -82 39q-35 41 -27 88q6 49 52 88q41 39 92 39t83.5 -39t26.5 -88zM629 817q-4 -18 8 -31.5t31 -13.5q18 0 32.5 13.5t18.5 32t-8.5 31.5t-30.5 13t-32.5 -13.5t-18.5 -31.5zM1368 811q-4 -18 8.5 -31.5t30.5 -13.5t32.5 13.5t18.5 31.5q2 18 -9 31.5t-30 13.5 q-18 0 -33.5 -13.5t-17.5 -31.5zM1202 309l-31 45q-84 -76 -184 -75q-106 0 -174 79l-51 -49q74 -90 209 -90q141 0 231 90z" />
<glyph horiz-adv-x="1171" d="M387 1260q8 66 -35 118q-43 51 -110 52q-70 0 -127 -52q-59 -53 -67.5 -118.5t34.5 -118.5q43 -51 111 -51q70 0 126 51q60 53 68 119zM344 1262q-6 -49 -51 -88q-41 -39 -94 -39q-49 0 -82 38.5t-27 88.5q6 45 51 88q45 39 95 39q49 0 81.5 -39t26.5 -88zM1124 1260 q8 66 -34 118q-43 51 -111 52q-70 0 -127 -52q-59 -53 -67.5 -118.5t34.5 -118.5q43 -51 111 -51q70 0 127 51q59 53 67 119zM1081 1262q-6 -49 -51 -88q-41 -39 -94 -39q-49 0 -82 38.5t-27 88.5q6 45 52 88q45 39 94 39t81.5 -39t26.5 -88zM188 1227q-4 -18 8.5 -31.5 t30.5 -13.5t32.5 13t19.5 32q2 18 -9.5 31.5t-29.5 13.5t-34 -13.5t-18 -31.5zM926 1221q-2 -18 9 -31.5t30 -13.5q18 0 33.5 13t17.5 32q4 18 -7.5 31.5t-31.5 13.5q-18 0 -32.5 -13.5t-18.5 -31.5zM690 473l-31 45q-84 -76 -184 -76q-106 0 -174 80l-51 -49 q74 -90 209 -90q141 0 231 90z" />
<glyph unicode=" "  horiz-adv-x="522" />
<glyph unicode="&#x09;" horiz-adv-x="522" />
<glyph unicode="&#xa0;" horiz-adv-x="522" />
<glyph unicode="!" horiz-adv-x="417" d="M190 303l162 1159h-82l-161 -1159h81zM193 66q-4 39 -17 51q-18 23 -47 22q-78 -12 -84 -73q-12 -74 64 -74q76 13 84 74z" />
<glyph unicode="&#x22;" horiz-adv-x="552" d="M461 1489h-84l-23 -328h41zM231 1489h-84l-24 -328h43z" />
<glyph unicode="#" horiz-adv-x="1107" d="M1094 1057h-269l99 260h-50l-100 -260h-285l99 260h-49l-101 -260h-284l-25 -49h289l-90 -236h-262l-23 -51h266l-98 -258h49l100 258h287l-106 -268h51l104 268h275l22 51h-278l90 236h264zM756 1008l-90 -236h-287l88 236h289z" />
<glyph unicode="$" horiz-adv-x="970" d="M870 399q39 285 -297 424l78 563q147 -23 197 -143l84 35q-72 190 -268 190l14 109h-82l-14 -109q-141 0 -248 -98q-106 -96 -125 -237q-20 -150 57 -240q31 -35 84 -66.5t133 -60.5l-98 -696q-250 0 -283 260l-88 -29q14 -147 111 -233q96 -84 248 -84l-15 -109h82 l15 111q174 0 288 123q98 108 127 290zM496 856q-109 47 -152 96q-63 68 -51 172q14 106 92 179q72 68 184 83zM786 399q-20 -139 -96 -229q-86 -100 -223 -100l92 663q258 -111 227 -334z" />
<glyph unicode="%" horiz-adv-x="1087" d="M662 1171q14 102 -52 181q-63 76 -170 75q-106 0 -188 -75q-86 -76 -100 -181q-14 -98 51 -176q68 -76 166 -75q106 0 192 73q85 69 101 178zM1108 1462h-82l-1001 -1462h81zM940 236q12 104 -51.5 180t-169.5 76t-191 -76q-86 -80 -98 -180q-14 -100 51 -177 q68 -76 166 -75q106 0 193 73q86 73 100 179zM578 1171q-8 -66 -68 -118q-68 -49 -129 -49q-68 0 -111 51q-45 47 -34 116q8 68 67 121q53 51 127 51q70 0 113 -51q43 -53 35 -121zM856 236q-12 -68 -70 -119q-59 -49 -127 -49t-112.5 51t-32.5 117q8 68 66 120 q57 51 127 52q72 0 114 -52q43 -52 35 -120z" />
<glyph unicode="&#x26;" horiz-adv-x="1232" d="M1110 420l-35 59l-237 -174l-252 486l164 102q199 125 217 266q20 137 -56 213q-78 74 -217 74q-125 0 -221 -82q-98 -80 -117 -203q-10 -66 15 -129l45 -104l65 -123l-256 -170q-182 -152 -207 -322q-18 -143 60 -231q80 -90 229 -90q211 0 492 201l102 -193h96 l-129 244zM891 1159q-10 -41 -19 -55l-34 -53q-25 -29 -53.5 -52.5t-61.5 -44.5l-170 -104l-64 121l-43 92q-16 33 -10 98q12 88 88 150q76 59 162 59q104 0 164 -53q57 -54 41 -158zM766 254q-80 -55 -127 -82q-170 -100 -317 -100q-111 0 -172 67q-63 66 -48 174 q18 135 168 267q31 27 90 66l152 97z" />
<glyph unicode="'" horiz-adv-x="335" d="M233 1462h-86l-24 -325h45z" />
<glyph unicode="(" horiz-adv-x="376" d="M186 -127q-98 406 -36 836q10 72 30.5 162t52.5 196q39 135 86.5 253t100.5 224h-72q-209 -410 -270 -835q-10 -80 -16.5 -172.5t-2.5 -196.5q0 -53 3.5 -88l5.5 -55q4 -39 4 -66t2 -43q8 -55 17 -108.5t24 -106.5h71z" />
<glyph unicode=")" horiz-adv-x="397" d="M336 709q12 90 18 179t4 181q-4 125 -17 243t-42 232h-72q94 -422 37 -835q-10 -78 -31.5 -168t-52.5 -193q-78 -260 -186 -475h72q209 396 270 836z" />
<glyph unicode="*" horiz-adv-x="591" d="M541 1141q-4 59 -88 92q-20 10 -55.5 18.5t-84.5 18.5l158 47q102 47 104 82q6 47 -38 47q-106 -23 -232 -156q25 35 27 56l22 63l23 84q12 78 -43 78q-53 -8 -66 -78l-2 -100l19 -103l-84 99q-49 57 -105 57q-47 -12 -53 -51q-6 -49 86 -86l64 -25l77 -14 q-252 -61 -262 -127q-6 -49 37 -49q68 12 123 61l111 92l-60 -135q-10 -16 -16 -65q-12 -80 47 -76q49 4 61 80l2 90l-14 106l88 -96q47 -53 100 -53q48 0 54 43z" />
<glyph unicode="+" horiz-adv-x="774" d="M641 500l12 84h-209l29 209h-94l-29 -209h-209l-12 -84h209l-29 -209h94l29 209h209z" />
<glyph unicode="," horiz-adv-x="366" d="M338 111l-88 30l-178 -334l24 -18z" />
<glyph unicode="-" horiz-adv-x="555" d="M463 461l12 84h-432l-12 -84h432z" />
<glyph unicode="." horiz-adv-x="231" d="M172 55q-6 68 -57 68q-68 -12 -78 -68q0 -35 14 -49q20 -18 43 -18q68 -1 78 67z" />
<glyph unicode="/" horiz-adv-x="587" d="M662 1493h-80l-639 -1493h84z" />
<glyph unicode="0" horiz-adv-x="1138" d="M1110 743q39 291 -49 506q-111 260 -381 260t-451 -260q-154 -215 -192 -506q-41 -293 49 -503q111 -260 381 -260t453 258q149 210 190 505zM1022 743q-41 -281 -178 -467q-156 -211 -367 -210q-229 0 -315 237q-72 188 -35 440q39 274 178 469q154 213 365 213 q231 0 317 -237q72 -191 35 -445z" />
<glyph unicode="1" horiz-adv-x="1116" d="M586 0l205 1462h-277l-68 -84h248l-192 -1378h84z" />
<glyph unicode="2" horiz-adv-x="1116" d="M1061 1085q25 172 -84 281q-113 109 -285 109q-205 0 -346 -136q-104 -102 -135 -211h92q35 96 103 158q109 106 274 107q135 0 223 -88q92 -88 74 -220q-18 -133 -123 -256l-834 -829h885l13 84h-701l488 475l108 110l66 66q157 176 182 350z" />
<glyph unicode="3" horiz-adv-x="1116" d="M922 395q43 307 -232 393q285 61 322 334q25 168 -73.5 270.5t-266.5 102.5q-162 0 -281 -92q-123 -94 -162 -250h97q88 258 333 258q129 0 199 -82q72 -82 53 -207q-18 -133 -104 -202q-43 -35 -97.5 -58.5t-119.5 -23.5h-86l-17 -101h86q47 0 90.5 -23.5t84.5 -58.5 q106 -96 81 -260q-18 -133 -127 -229q-109 -92 -245 -92q-102 0 -183 67q-82 70 -94 168h-90q12 -150 107 -235q96 -84 247 -84q180 0 318 112q135 111 160 293z" />
<glyph unicode="4" horiz-adv-x="1116" d="M1036 279l13 81h-170l157 1123l-1007 -1204h751l-39 -279h86l39 279h170zM793 360h-582l707 852z" />
<glyph unicode="5" horiz-adv-x="1116" d="M1024 522q33 236 -111 373q-141 135 -340 123l-86 -6l-84 -11l142 377h495l13 84h-561l-226 -567q80 29 150 29q33 8 49 8h31l67 2q168 6 283 -105q123 -117 94 -307q-25 -190 -168 -325q-143 -133 -332 -134q-162 0 -250 74q-72 59 -114 180l-82 -30q86 -307 434 -307 q233 0 399 153q166 158 197 389z" />
<glyph unicode="6" horiz-adv-x="1116" d="M1030 469q31 215 -94 358q-123 143 -338 144l-94 -8l-92 -25l-93 -43l392 567h-97l-458 -657q-23 -35 -44.5 -73t-37.5 -81l-22.5 -57.5t-12.5 -34.5l-4 -23l-4 -22l-6 -45q-31 -225 88 -365q121 -139 344 -139q217 0 379 144q163 143 194 360zM948 469 q-25 -178 -162 -301q-139 -121 -319 -121t-283 121q-102 119 -78 301q25 174 166 297q137 123 314 123q176 0 280 -125q107 -125 82 -295z" />
<glyph unicode="7" horiz-adv-x="1116" d="M1196 1462h-1028l-12 -84h872l-1075 -1345l61 -53z" />
<glyph unicode="8" horiz-adv-x="1116" d="M940 389q20 162 -63 268q-61 78 -164 117q111 35 186 127q76 96 90 209q25 168 -65 272.5t-258 104.5q-166 0 -285 -107q-119 -102 -143 -270q-14 -111 30 -205q49 -100 146 -131q-131 -47 -221 -149q-86 -102 -105 -236q-27 -184 78 -301q104 -115 291 -115 q182 0 321 117q133 115 162 299zM907 1110q-18 -129 -112 -211q-47 -41 -103.5 -65.5t-122.5 -24.5q-61 0 -110 26.5t-84 67.5q-74 82 -56 207q18 129 113 211q96 84 221 84q127 0 201 -84q71 -84 53 -211zM858 389q-20 -143 -133 -239q-113 -94 -260 -95q-150 0 -232 99 q-84 98 -63 235q18 137 133 240q59 49 122.5 78.5t133.5 29.5q72 0 128 -29.5t101 -80.5q88 -99 70 -238z" />
<glyph unicode="9" horiz-adv-x="1116" d="M1102 969q31 217 -92 360.5t-340 143.5t-381 -144q-162 -143 -192.5 -360t91.5 -361q123 -141 340 -141l95 8l90 25l92 43l-365 -527l74 -36l457 653q25 37 45 74.5t37 78.5q37 95 49 183zM1020 969q-25 -178 -164 -299t-315 -121q-180 0 -285 123q-102 123 -78 297 q25 182 162 301q139 121 319 121t283 -121q103 -119 78 -301z" />
<glyph unicode=":" horiz-adv-x="333" d="M283 659q-6 68 -60 68q-70 -12 -76 -68q0 -35 13 -49q25 -18 45 -18q68 -1 78 67zM197 55q-4 68 -58 68q-68 -12 -78 -68q0 -35 15 -49q20 -18 45 -18q66 -1 76 67z" />
<glyph unicode=";" horiz-adv-x="417" d="M336 659q-6 68 -60 68q-70 -12 -75 -68q-2 -31 12 -49q20 -18 45 -18q66 -1 78 67zM287 111l-68 30l-199 -334l25 -18z" />
<glyph unicode="&#x3c;" horiz-adv-x="647" d="M535 225l14 92l-334 222l395 221l15 92l-559 -313z" />
<glyph unicode="=" horiz-adv-x="606" d="M551 625l10 84h-463l-10 -84h463zM516 375l10 82h-463l-10 -82h463z" />
<glyph unicode="&#x3e;" horiz-adv-x="647" d="M608 539l-469 313l-14 -92l332 -221l-394 -222l-14 -92z" />
<glyph unicode="?" horiz-adv-x="960" d="M946 1171q23 154 -84 238q-92 74 -254 74q-295 0 -448 -273l73 -34q70 98 136 147q106 78 227 78t197 -53q86 -61 69 -177q-12 -88 -96 -172q-20 -20 -64 -51l-108 -76l-193 -129q-158 -109 -176 -239q-12 -94 45 -146q59 -53 140 -47l59 4l49 13q53 23 78 45l-39 67 q-61 -43 -135 -43q-49 0 -82 29q-31 29 -25 78q14 106 127 180l191 125q162 106 188 133q107 104 125 229zM436 66q-4 72 -61 71q-72 -12 -82 -71q4 -72 61 -72q72 0 82 72z" />
<glyph unicode="@" horiz-adv-x="1220" d="M1079 215q61 86 80 213q31 215 -112 363q-139 139 -361 139q-225 0 -405.5 -151.5t-210.5 -375.5q-31 -217 84 -366q125 -164 383 -164q127 0 231 39q109 39 160 90l-35 39q-53 -57 -168 -90q-96 -25 -178 -25q-217 0 -336 131t-88 346q29 201 190 336q158 137 367 138 q201 0 324 -125q129 -131 102 -324q-16 -106 -66 -174q-63 -90 -139 -90q-41 0 -61 31q-25 41 -11 110l76 334h-51l-25 -111q-41 123 -194 123q-121 0 -213 -79.5t-109 -200.5q-18 -119 35 -191q51 -72 170 -71q164 0 248 116q0 -41 25 -73q31 -43 94 -43q118 0 194 106z M754 543q43 -55 30 -142q-14 -102 -84 -172q-68 -66 -174 -65q-188 0 -157 207q12 94 88 159q76 68 170 68q86 0 127 -55z" />
<glyph unicode="A" horiz-adv-x="1296" d="M1126 0l-372 1509l-797 -1509h92l232 438h655l106 -438h84zM913 522h-587l397 754z" />
<glyph unicode="B" horiz-adv-x="1144" d="M1028 424q5 35 5 68q0 114 -60 198q-78 109 -228 139q168 88 197 283q5 35 5 66q0 121 -75 196q-86 88 -258 88h-356l-205 -1462h457q190 0 340 119q149 117 178 305zM858 1112q-14 -119 -104 -192.5t-207 -73.5h-293l74 532h280q123 0 195 -73q59 -57 59 -147 q0 -22 -4 -46zM946 424q-20 -150 -145 -246q-121 -94 -277 -94h-377l95 678h376q158 0 250 -90q82 -79 82 -194q0 -26 -4 -54z" />
<glyph unicode="C" horiz-adv-x="1437" d="M1288 158l12 96q-68 -45 -121 -76t-92 -49q-143 -66 -327 -66q-293 0 -453 189q-129 149 -129 365q0 55 8 114q41 293 256 481q213 188 506 189q88 0 167 -16.5t151 -47.5q96 -45 172 -114l14 104q-74 66 -160 100q-141 55 -331 56q-334 0 -572 -211q-242 -209 -287 -541 q-9 -67 -9 -128q0 -244 143 -415q180 -209 512 -208q31 0 57 1t49 3q199 18 326 102z" />
<glyph unicode="D" horiz-adv-x="1409" d="M1296 733q10 68 10 131q0 214 -112 377q-154 221 -449 221h-487l-205 -1462h488q297 0 512 221q200 207 243 512zM1212 733q-43 -303 -245 -481q-186 -168 -414 -168h-406l183 1296h405q258 0 391 -196q95 -142 95 -332q0 -58 -9 -119z" />
<glyph unicode="E" horiz-adv-x="968" d="M745 0l13 84h-619l94 672h619l12 90h-618l73 532h619l12 84h-702l-205 -1462h702z" />
<glyph unicode="F" horiz-adv-x="886" d="M795 762l12 84h-553l74 532h553l12 84h-635l-205 -1462h82l107 762h553z" />
<glyph unicode="G" horiz-adv-x="1683" d="M1604 707h-576l-10 -84h483q-51 -199 -215 -353q-219 -207 -526 -207q-289 0 -453 189q-131 149 -131 366q0 54 8 113q39 289 258 479q217 190 506 191q354 0 512 -271l76 52q-184 301 -575 301q-328 0 -570 -213q-244 -213 -289 -539q-9 -67 -9 -128q0 -244 143 -415 q180 -209 512 -208q348 0 591 223q226 207 265 504z" />
<glyph unicode="H" horiz-adv-x="1259" d="M1024 0l205 1462h-84l-86 -616h-805l86 616h-82l-205 -1462h82l107 762h805l-107 -762h84z" />
<glyph unicode="I" horiz-adv-x="393" d="M137 0l205 1462h-82l-205 -1462h82z" />
<glyph unicode="J" horiz-adv-x="645" d="M461 291l166 1171h-84l-164 -1167q-35 -227 -186 -227q-96 0 -140 94l-78 -45q53 -133 207 -133q236 0 279 307z" />
<glyph unicode="K" horiz-adv-x="1073" d="M950 0l-655 764l799 698h-119l-744 -649l91 649h-84l-205 -1462h84l96 694l14 13l607 -707h116z" />
<glyph unicode="L" horiz-adv-x="729" d="M547 0l12 84h-412l193 1378h-82l-205 -1462h494z" />
<glyph unicode="M" horiz-adv-x="1847" d="M1702 0l-170 1507l-682 -1306l-313 1304l-592 -1505h84l485 1231l303 -1268l660 1266l139 -1229h86z" />
<glyph unicode="N" horiz-adv-x="1464" d="M1229 -25l209 1487h-84l-178 -1269l-914 1280l-207 -1473h82l174 1241z" />
<glyph unicode="O" horiz-adv-x="1683" d="M1608 731q9 66 9 128q0 246 -144 415q-182 209 -512 209q-334 0 -572 -211q-242 -209 -287 -541q-9 -67 -9 -128q0 -244 143 -415q180 -209 512 -208q336 0 573 210q242 209 287 541zM1524 731q-43 -297 -254 -483q-213 -184 -510 -185q-293 0 -453 189 q-129 149 -129 365q0 55 8 114q41 293 256 481q213 188 506 189q293 0 457 -189q127 -148 127 -365q0 -56 -8 -116z" />
<glyph unicode="P" horiz-adv-x="1003" d="M961 1100q5 32 4 62q0 122 -80 202q-102 98 -271 98h-356l-205 -1462h82l103 731h274q166 0 297 103q129 98 152 266zM877 1100q-18 -135 -119 -211q-98 -74 -236 -74h-272l78 563h272q137 0 213 -69q67 -62 67 -162q0 -23 -3 -47z" />
<glyph unicode="Q" horiz-adv-x="1683" d="M1636 731q9 66 9 128q0 246 -144 415q-182 209 -512 209q-334 0 -571 -211q-242 -209 -287 -541q-9 -67 -9 -128q0 -244 142 -415q180 -209 512 -208q336 0 574 210q241 209 286 541zM1552 731q-43 -297 -254 -483q-213 -184 -510 -185q-293 0 -452 189 q-129 149 -129 365q0 55 8 114q41 293 256 481q213 188 506 189q293 0 457 -189q128 -149 127 -362q0 -57 -9 -119zM1309 -258l41 74l-400 161l-43 -73z" />
<glyph unicode="R" horiz-adv-x="991" d="M856 0l-367 731q88 0 165 21.5t137.5 66.5t100.5 115t52 166q4 32 5 61q0 51 -14 94q-22 68 -70 114t-117.5 69.5t-151.5 23.5h-338l-205 -1462h82l103 731h157l363 -731h98zM858 1102q-18 -139 -109.5 -213t-222.5 -74h-276l78 563h254q66 0 121 -17.5t93 -51t55 -85.5 q11 -33 11 -73q0 -23 -4 -49z" />
<glyph unicode="S" horiz-adv-x="1019" d="M889 379q5 34 5 66q0 132 -83 225q-37 43 -100.5 85t-153.5 85q-147 72 -188 110q-68 66 -68 151q0 15 2 32q14 117 113 188q88 68 211 68q115 0 180 -46q27 -16 47 -41.5t37 -58.5l84 35q-80 193 -338 192q-156 0 -275 -94q-121 -92 -143 -243q-4 -29 -4 -57 q0 -113 76 -187q57 -57 219 -135q172 -84 221 -133q77 -77 78 -191q0 -25 -4 -51q-23 -154 -123 -234q-102 -78 -260 -77q-276 0 -311 262l-88 -29q53 -317 387 -317q111 0 192 28q250 91 287 367z" />
<glyph unicode="T" horiz-adv-x="903" d="M926 1466l-13 -92h-319l-195 -1378h-90l195 1380h-322l13 90h731z" />
<glyph unicode="U" horiz-adv-x="1136" d="M952 365l156 1097h-84l-156 -1097q-18 -137 -135 -220q-106 -76 -248 -75q-145 0 -227 73q-75 65 -75 175q0 22 3 47l156 1097h-82l-156 -1097q-4 -32 -4 -63q0 -135 90 -220q102 -96 283 -96q184 0 311 94q143 107 168 285z" />
<glyph unicode="V" horiz-adv-x="1077" d="M1122 1462h-88l-555 -1208l-213 1208h-86l260 -1487z" />
<glyph unicode="W" horiz-adv-x="1794" d="M1845 1462h-86l-551 -1196l-196 1223l-543 -1223l-215 1196h-82l260 -1482l539 1226l192 -1226z" />
<glyph unicode="X" horiz-adv-x="1085" d="M930 0l-326 750l506 712h-96l-451 -633l-272 633h-96l307 -706l-537 -756h94l480 678l295 -678h96z" />
<glyph unicode="Y" horiz-adv-x="1046" d="M1087 1462h-96l-452 -633l-273 633h-96l313 -731l-102 -731h84l102 731z" />
<glyph unicode="Z" horiz-adv-x="1134" d="M1178 1462h-940l-13 -86h768l-1009 -1376h985l12 84h-815z" />
<glyph unicode="[" horiz-adv-x="438" d="M233 -94l9 69h-144l211 1500h137l11 71h-221l-230 -1640h227z" />
<glyph unicode="\" horiz-adv-x="575" d="M444 0l-213 1462h-81l215 -1462h79z" />
<glyph unicode="]" horiz-adv-x="438" d="M238 -94l229 1640h-221l-10 -71h139l-211 -1500h-146l-8 -69h228z" />
<glyph unicode="^" horiz-adv-x="720" d="M606 772l-166 576h-67l-330 -576h53l289 422l166 -422h55z" />
<glyph unicode="_" horiz-adv-x="731" d="M748 -434l12 74h-754l-12 -74h754z" />
<glyph unicode="`" horiz-adv-x="679" d="M489 1008l-235 274l-51 -49l229 -272z" />
<glyph unicode="a" horiz-adv-x="1044" d="M870 0l119 846h-84l-20 -148q-115 160 -316 160q-182 0 -327.5 -127t-169.5 -309q-5 -35 -5 -68q0 -142 87 -243q106 -125 292 -125q203 0 361 159l-21 -145h84zM862 422q-23 -150 -139 -252q-119 -102 -264 -102q-147 0 -236 104q-73 87 -73 198q0 25 4 52 q23 150 139 252q119 102 264 102t236 -104q73 -87 73 -198q0 -25 -4 -52z" />
<glyph unicode="b" horiz-adv-x="1058" d="M932 422q5 36 5 70q0 138 -87 241q-106 125 -293 125q-215 0 -369 -170l115 828h-84l-213 -1516h84l23 156q111 -170 323 -170q182 0 328 127q143 129 168 309zM850 422q-18 -145 -137 -252q-121 -102 -267 -102q-143 0 -235 104q-73 86 -73 201q0 24 3 49 q20 145 140 252q121 102 266 102q143 0 235 -104q72 -84 72 -194q1 -27 -4 -56z" />
<glyph unicode="c" horiz-adv-x="897" d="M741 59l15 105q-123 -98 -271 -98q-156 0 -243 100q-68 81 -68 197q0 28 4 59q20 156 135 258q113 98 271 98q72 0 145 -26l53 -31l47 -35l15 100q-86 74 -248 74q-190 0 -330 -125q-141 -123 -170 -313q-5 -37 -5 -72q0 -139 85 -241q106 -125 297 -125q143 -1 268 75z " />
<glyph unicode="d" horiz-adv-x="1067" d="M846 0l213 1516h-84l-115 -824q-117 166 -321 166q-182 0 -328 -127q-141 -125 -170 -309q-5 -34 -5 -67q0 -143 89 -244q106 -125 293 -125q207 0 366 166l-22 -152h84zM831 422q-18 -145 -137 -252q-121 -102 -266 -102q-143 0 -235 104q-73 86 -73 201q0 24 3 49 q20 145 139 252q121 102 266 102q143 0 236 -104q72 -84 72 -194q0 -27 -5 -56z" />
<glyph unicode="e" horiz-adv-x="1003" d="M946 440q5 37 6 72q0 138 -86 231q-109 117 -297 117q-193 0 -331 -125q-139 -123 -168 -313q-6 -39 -6 -76q0 -139 86 -237q106 -125 296 -125q78 0 146 20q174 51 274 205l-69 35q-88 -113 -179 -150q-76 -29 -159 -28q-170 0 -250 102q-61 77 -61 195q0 37 6 77h792z M864 520h-686q117 258 379 258q125 0 213 -69q88 -72 94 -189z" />
<glyph unicode="f" horiz-adv-x="555" d="M604 1419l12 84q-31 14 -53 15q-12 4 -57 4q-195 0 -223 -195l-68 -481h-115l-12 -84h115l-107 -762h84l107 762h200l13 84h-201l63 457q18 135 134 135l55 -6z" />
<glyph unicode="g" horiz-adv-x="1044" d="M901 18l117 828h-84l-23 -148q-111 160 -315 160q-182 0 -328 -127q-143 -129 -168 -309q-6 -38 -6 -74q0 -138 88 -237q106 -125 293 -125q203 0 361 159l-19 -125q-20 -156 -121 -245q-100 -88 -258 -88q-117 0 -194 39q-102 49 -109 149h-84q31 -272 375 -272 q186 0 317 114q129 113 158 301zM891 422q-20 -145 -139 -252q-121 -102 -267 -102q-143 0 -235 104q-72 84 -72 193q0 27 4 57q18 145 137 252q121 102 267 102q143 0 235 -104q73 -86 73 -201q0 -24 -3 -49z" />
<glyph unicode="h" horiz-adv-x="933" d="M715 -2l71 518q6 44 7 82q0 260 -291 260q-176 0 -271 -125l111 783h-84l-213 -1516h84l78 551q16 104 98 164q82 61 184 61q218 0 218 -204q0 -30 -5 -64l-71 -510h84z" />
<glyph unicode="i" horiz-adv-x="376" d="M330 1065q-4 68 -58 68q-68 -12 -77 -68q0 -35 14 -49q20 -18 45 -19q66 0 76 68zM154 0l118 846h-84l-118 -846h84z" />
<glyph unicode="j" horiz-adv-x="378" d="M356 1065q-6 68 -57 68q-72 -12 -78 -68q0 -35 12 -49q25 -18 46 -19q67 0 77 68zM129 -369l172 1215h-84l-172 -1215h84z" />
<glyph unicode="k" horiz-adv-x="854" d="M715 0l-428 498l436 381h-119l-418 -365l142 1002h-84l-213 -1516h84l55 393l53 47l381 -440h111z" />
<glyph unicode="l" horiz-adv-x="393" d="M133 0l213 1516h-82l-213 -1516h82z" />
<glyph unicode="m" horiz-adv-x="1316" d="M1122 0l82 584q4 28 4 52q0 92 -53 150q-68 72 -197 72q-166 0 -258 -133q-55 133 -223 133q-137 0 -211 -96l13 84h-84l-119 -846h84l82 584q12 88 75 139q63 53 150 53q84 0 133 -55q41 -42 41 -109q0 -14 -2 -28l-82 -584h84l82 584q25 193 225 192q94 0 137 -57 q37 -43 37 -106q0 -14 -2 -29l-82 -584h84z" />
<glyph unicode="n" horiz-adv-x="923" d="M729 0l72 514q6 41 6 78q0 107 -53 174q-72 90 -230 90q-186 0 -260 -113l15 103h-84l-119 -846h84l71 514q18 123 91 191q70 70 190 69q210 0 210 -202q0 -31 -5 -66l-72 -506h84z" />
<glyph unicode="o" horiz-adv-x="1019" d="M942 422q5 36 5 70q0 138 -87 241q-109 127 -291 127q-184 0 -327 -129q-143 -125 -172 -309q-5 -34 -5 -67q0 -143 89 -244q106 -125 292 -125q182 0 328 127q143 129 168 309zM860 422q-18 -145 -137 -252q-121 -102 -266 -102q-143 0 -236 104q-73 86 -73 201 q0 24 4 49q20 141 141 250q119 106 264 106q147 0 238 -104q69 -83 69 -196q0 -27 -4 -56z" />
<glyph unicode="p" horiz-adv-x="1050" d="M1026 422q5 36 5 70q0 138 -87 241q-106 125 -293 125q-217 0 -372 -172l22 160h-84l-174 -1243h84l78 555q113 -172 323 -172q184 0 328 127q145 127 170 309zM944 422q-23 -150 -139 -252q-119 -102 -264 -102q-147 0 -236 104q-73 87 -73 198q0 25 4 52 q23 150 139 252q119 102 264 102t235 -104q74 -84 75 -195q-1 -26 -5 -55z" />
<glyph unicode="q" horiz-adv-x="1028" d="M838 -397l174 1243h-84l-21 -154q-117 166 -321 166q-182 0 -328 -127q-141 -125 -170 -309q-5 -35 -5 -68q0 -142 87 -243q111 -125 293 -125q209 0 368 166l-77 -549h84zM879 422q-23 -150 -140 -252q-119 -102 -264 -102q-147 0 -235 104q-73 87 -74 198q0 25 4 52 q23 150 139 252q119 102 264 102t236 -104q74 -84 74 -195q0 -26 -4 -55z" />
<glyph unicode="r" horiz-adv-x="634" d="M631 791q-47 37 -85 51t-104 14q-51 0 -99 -39t-81 -86l17 115h-84l-119 -846h84l78 557q4 33 22.5 72t46 70.5t61 53t68.5 21.5q41 0 76 -14.5t63 -38.5z" />
<glyph unicode="s" horiz-adv-x="677" d="M604 231q2 18 2 36q0 90 -63 147q-23 16 -65 37.5t-107 46.5q-37 14 -64.5 27.5t-44.5 27.5q-33 29 -33 72q0 11 2 22q14 129 164 129q109 0 170 -69l68 53q-84 98 -225 98q-102 0 -175 -63q-78 -63 -86 -148q-4 -22 -3 -42q0 -72 46 -111q39 -35 138 -74 q106 -41 143 -64q51 -45 51 -104q0 -10 -2 -21q-23 -164 -215 -163q-88 0 -133 38q-47 39 -72 99l-77 -43q74 -178 270 -178q117 0 205 69q90 67 106 178z" />
<glyph unicode="t" horiz-adv-x="512" d="M481 762l11 84h-197l53 371h-84l-53 -371h-135l-10 -84h135l-109 -762h84l109 762h196z" />
<glyph unicode="u" horiz-adv-x="878" d="M741 317l76 529h-82l-76 -529q-35 -252 -270 -251q-119 0 -166 65q-33 45 -33 124q0 29 5 62l75 529h-84l-75 -529q-5 -36 -5 -68q0 -108 52 -177q70 -88 219 -88q154 0 250 90q94 89 114 243z" />
<glyph unicode="v" horiz-adv-x="890" d="M918 846h-95l-403 -674l-213 674h-90l276 -883z" />
<glyph unicode="w" horiz-adv-x="1400" d="M1413 846h-94l-373 -653l-176 679l-369 -682l-192 656h-90l256 -883l362 676l170 -676z" />
<glyph unicode="x" horiz-adv-x="739" d="M651 0l-227 428l340 418h-98l-283 -350l-186 350h-99l224 -420l-349 -426h101l288 354l191 -354h98z" />
<glyph unicode="y" horiz-adv-x="911" d="M952 846h-92l-405 -668l-222 668h-90l250 -768l-287 -475h95z" />
<glyph unicode="z" horiz-adv-x="935" d="M928 846h-740l-10 -80h570l-713 -766h764l12 84h-590z" />
<glyph unicode="{" horiz-adv-x="395" d="M250 -104l10 75q-104 0 -137 33q-33 31 -21 131l58 408q6 45 -13 98q-18 55 -45 86q94 72 109 184l53 375q16 98 60 135q47 39 143 39l10 76q-139 0 -203 -57q-68 -55 -86 -193l-53 -375q-16 -111 -117 -184l31.5 -41t20.5 -35q20 -57 14 -108l-57 -412q-18 -137 32 -186 t191 -49z" />
<glyph unicode="|" horiz-adv-x="272" d="M68 -94l229 1640h-72l-229 -1640h72z" />
<glyph unicode="}" horiz-adv-x="395" d="M381 727q-41 45 -51 72q-23 51 -17 112l54 375q18 133 -33 191q-49 59 -187 59l-10 -76q98 0 131 -39q37 -41 23 -135l-53 -375q-6 -66 8 -106q16 -45 51 -78q-94 -86 -111 -184l-57 -408q-12 -98 -57 -133q-43 -31 -146 -31l-10 -75q137 0 205 49q66 49 84 186l57 412 q8 51 49 110q31 47 70 74z" />
<glyph unicode="~" horiz-adv-x="878" d="M825 735l-57 56q-80 -74 -168 -74l-37 4l-33 10l-65 33l-78 37q-35 12 -74 12q-135 0 -254 -104l50 -60l43 35l38 23q55 25 113 24q45 0 82 -22l47 -27l80 -39q20 -10 80 -10q120 0 233 102z" />
<glyph unicode="&#xa1;" horiz-adv-x="417" d="M377 1245q0 37 -15 51q-18 23 -49 23q-76 -12 -84 -74q-10 -74 64 -74q78 13 84 74zM152 -152l161 1160h-82l-161 -1160h82z" />
<glyph unicode="&#xa2;" horiz-adv-x="866" d="M795 961l14 100q-39 41 -98 59q-51 23 -121 23l14 100h-86l-14 -102q-170 -20 -287 -137q-115 -115 -139 -285q-20 -156 55 -268q94 -141 254 -142l-16 -121h86l16 119l66 6l63 15q70 27 107 49l12 94q-133 -84 -238 -84l95 668q57 0 118 -29l49 -31zM399 389 q-125 20 -186 111q-63 88 -45 219q18 125 106 223q88 92 218 111z" />
<glyph unicode="&#xa3;" horiz-adv-x="970" d="M829 102l-47 54q-98 -86 -194 -86q-45 0 -78 12l-74 35q-29 20 -69 37l-33 14l-29 2q35 33 66.5 69.5t58.5 79.5q55 86 68 181h229l12 88h-233q-6 74 -49 149l-84 160q-66 123 -68 197l2 65q35 231 301 232q117 0 178 -48q78 -55 62 -163h82q20 147 -74 223 q-82 70 -235 70q-156 0 -265 -78q-117 -84 -139 -236q-10 -78 14 -158l62 -145l59 -104q63 -106 66 -164h-213l-12 -88h219q-20 -164 -215 -334q-47 0 -113 -35q-63 -35 -98 -76l45 -57q55 47 92 63q70 27 121 25l47 -4l45 -12q27 -6 53 -25q88 -57 186 -57q78 0 150 37 l55 38q26 19 49 39z" />
<glyph unicode="&#xa4;" horiz-adv-x="1437" d="M1337 559l13 82h-1151q2 23 3 45.5t5 44.5q4 20 7 40t7 38h1153l10 84h-1138q66 188 217 319q213 188 506 189q88 0 166.5 -16.5t150.5 -47.5q96 -45 172 -114l15 104q-74 66 -160 100q-141 55 -332 56q-334 0 -571 -211q-178 -154 -250 -379h-135l-13 -84h125 q-4 -18 -7 -37.5t-7 -40.5q-4 -23 -6 -45t-2 -45h-125l-13 -82h138q8 -213 141 -371q180 -209 512 -208q31 0 57.5 1t48.5 3q199 18 326 102l109 72l12 96q-68 -45 -121 -76t-92 -49q-143 -66 -328 -66q-293 0 -452 189q-111 127 -127 307h1136z" />
<glyph unicode="&#x20ac;" horiz-adv-x="1437" d="M1337 559l13 82h-1151q2 23 3 45.5t5 44.5q4 20 7 40t7 38h1153l10 84h-1138q66 188 217 319q213 188 506 189q88 0 166.5 -16.5t150.5 -47.5q96 -45 172 -114l15 104q-74 66 -160 100q-141 55 -332 56q-334 0 -571 -211q-178 -154 -250 -379h-135l-13 -84h125 q-4 -18 -7 -37.5t-7 -40.5q-4 -23 -6 -45t-2 -45h-125l-13 -82h138q8 -213 141 -371q180 -209 512 -208q31 0 57.5 1t48.5 3q199 18 326 102l109 72l12 96q-68 -45 -121 -76t-92 -49q-143 -66 -328 -66q-293 0 -452 189q-111 127 -127 307h1136z" />
<glyph unicode="&#xa5;" horiz-adv-x="1052" d="M1087 1462h-96l-452 -635l-273 635h-96l309 -721h-200l-13 -84h207l-12 -92h-207l-12 -84h207l-68 -481h84l67 481h209l13 84h-209l12 92h209l12 84h-203z" />
<glyph unicode="&#xa6;" horiz-adv-x="272" d="M199 893l92 653h-72l-92 -653h72zM74 0l94 670h-72l-94 -670h72z" />
<glyph unicode="&#xa7;" horiz-adv-x="778" d="M711 713q39 274 -269 327q-182 31 -161 199q12 74 69 125q57 49 131 49q127 0 183 -135l67 41q-61 172 -237 172q-111 0 -199 -72q-86 -72 -100 -184q-20 -154 112 -236q-96 -47 -135 -90q-80 -80 -94 -202q-18 -119 53 -207q70 -84 191 -101q211 -27 184 -235 q-12 -84 -76 -135q-66 -49 -149 -49q-90 0 -129 45q-43 49 -58 112l-82 -35q25 -98 88 -149q63 -53 168 -53q125 0 219 71q92 72 111 193q25 190 -102 266q190 101 215 283zM618 707q-16 -98 -83 -152q-72 -53 -168 -53q-94 0 -150 59q-57 57 -45 156q14 92 80 153 q63 61 158 62q239 0 208 -225z" />
<glyph unicode="&#xa8;" horiz-adv-x="878" d="M657 1065q-6 68 -57 68q-68 -12 -78 -68q0 -35 15 -49q20 -18 43 -19q67 0 77 68zM377 1065q-6 68 -58 68q-68 -12 -77 -68q0 -35 14 -49q20 -18 43 -19q68 0 78 68z" />
<glyph unicode="&#xa9;" horiz-adv-x="1204" d="M1147 797q31 227 -103 383q-137 156 -360 155q-223 0 -403.5 -157.5t-210.5 -380.5q-31 -227 102 -383q135 -156 360 -156q223 0 403.5 158t211.5 381zM1108 799q-29 -209 -195 -355q-162 -143 -372 -143q-207 0 -334 145q-123 143 -94 353q31 213 194 354 q162 143 373 143q207 0 334 -145q125 -145 94 -352zM780 631l6 49q-84 -80 -204 -80q-111 0 -160 61.5t-37 145.5q12 94 86 149.5t168 55.5l57 -6q27 -4 56 -19l39 -20l32 -25l6 49l-36 25l-33 16q-39 20 -115 21q-115 0 -201 -68q-84 -63 -100 -178q-16 -111 51 -180 q68 -68 180 -68q121 0 205 72z" />
<glyph unicode="&#xaa;" horiz-adv-x="763" d="M608 868l72 508h-51l-13 -88q-61 96 -188 96q-113 0 -197 -75q-86 -76 -100 -186.5t49 -186.5q61 -76 174 -76q127 0 217 96l-14 -88h51zM635 688l8 60h-582l-8 -60h582zM604 1122q-12 -84 -84 -149q-72 -63 -160 -64q-84 0 -139 64q-53 66 -41 149q12 86 84 150 q70 63 158 63q84 0 139 -63.5t43 -149.5z" />
<glyph unicode="&#xab;" horiz-adv-x="899" d="M850 866l-37 43l-438 -387l323 -379l50 43l-291 336zM553 866l-35 43l-440 -387l323 -379l50 43l-289 336z" />
<glyph unicode="&#xac;" horiz-adv-x="1929" d="M793 158q-10 4 -18.5 9t-16.5 11h35q4 -6 16 -14zM1022 14l-31 21l39 -21h-8zM846 0l31 -8l-31 2v6zM815 -319q-16 -2 -18 4t-2 20q0 53 16 104.5t27 102.5q10 -4 30 -8q-2 -8 -2 -17q0 -8 -4 -14l2 -4q-6 -29 -6 -57l6 -7q8 2 11.5 26t3.5 32l8 -4q0 -59 -5 -116.5 t-30 -111.5q-12 8 -19.5 20.5t-11.5 24.5zM834 -6v4v-4zM807 -158l-4 4q-4 -2 -9.5 -16t-9.5 -32l-8 -34q-4 -16 -4 -22q8 45 17.5 89t21.5 89l14 -6l-9 -35t-9 -37zM786 -250q-4 -16 -6 -29.5t-8 -29.5zM899 -102l74 -15.5t76 -13.5q-39 4 -76 6l-74 4v19zM817 -16l-12 -41 q-23 10 -41.5 24.5t-38.5 24.5q23 -4 46 -5t46 -3zM834 -18v-25q0 -10 -5 -25l-14 5l14 45h5zM885 -23l-8 -55l-5 -6q-16 2 -30 12q4 12 4 27v27zM997 0l21 2l26 -18zM913 84l-2 -6q0 -4 14 -13l28 -20l30 -20l18 -13q-25 -2 -51 6.5t-52 21.5t-51 29l-46 27q29 -4 56 -6 t56 -6zM821 154l21 -19q-16 2 -35 15zM803 137l-29 2l17 4zM831 170l-8 -2l-6 4zM1151 954q0 4 1 9.5t1 9.5l12 12l2 -4q-4 -17 -16 -27zM1143 913h2l-2 -2v2zM584 1368h141q-4 -100 -20.5 -198.5t-28.5 -198.5h-25q-22 200 -67 397zM862 971h-41q2 31 4 71.5t9.5 80.5 t21.5 75t43 55q8 -10 5 -50t-11 -86t-17.5 -89t-13.5 -57zM778 842q10 10 17.5 21t11.5 24h33q-10 -35 -18.5 -70t-14.5 -69q-14 18 -20 45zM670 928v2v-2zM758 971h-17q4 14 8.5 26.5t8.5 26.5v-53zM778 858l-4 29h21q-7 -15 -17 -29zM696 823l-2 51l6 -6q4 0 6.5 7.5 t4.5 11.5h51l4 -41q-16 -10 -34 -15.5t-36 -7.5zM639 971h-90q-23 96 -21 198.5t19 198.5h24q48 -198 68 -397zM653 827q-45 14 -71 60q14 0 22 -1t21 -5l2 6h22zM684 823l-12 2l6 62h4zM559 887h8q14 -25 36 -44.5t50 -27.5q2 -53 10.5 -59t8.5 57l12 -2q4 -92 12 -180 q-37 63 -69 127zM967 961l-2 -3zM975 1044l-2 -26zM975 887h2q0 -4 -1 -6t-1 -7v13zM946 784l4 -12v-8l-8 4zM934 819v-2v-4v6zM995 975h-8v10zM1067 1008q-25 -18 -57 -29l-21 22q0 10 1 37t-9 31l-4 -16h-12q0 -20 -4.5 -41t-10.5 -41h-76q16 66 28.5 131t12.5 131 q0 8 -2 20.5t-12 12.5q-29 0 -46 -38t-26.5 -88t-13.5 -99.5t-6 -69.5h-39q0 6 1 25.5t1 37.5q0 20 -2 36.5t-8 19.5q-6 -6 -10 -22l-10 -34q-5 -18 -9 -35.5t-6 -27.5h-29q6 100 20.5 198.5t18.5 198.5q61 0 133 3t132.5 -11t101.5 -57t41 -134q0 -29 -6 -56.5t-23 -51.5 q-8 6 -16 -12.5t-13 -22.5q0 6 -1 20.5t-3 30t-5 28.5t-7 15l-8 -6v-53q0 -26 4 -53zM1141 940l-2 -2l-9 14l11 9q-2 -4 -1 -10.5t1 -10.5zM1112 920v20l6 4q4 -6 8 -14t4 -17l-7 3.5l-7 3.5h-4zM1077 854l8 -6l-10 -8zM1100 922v2v-2zM1182 991q0 4 1 12.5t5 12.5l8 -8z M1628 1206v-37q2 10 1 18.5t-1 18.5zM924 727v18l4 5zM373 887h82q-10 -33 -39 -68q-29 27 -43 68zM133 952q-4 -2 -4 -14v-14q-4 23 -4 45q0 25 4 47q4 -16 4 -31v-33zM131 848h2q0 -29 1 -57.5t5 -57.5q-6 29 -6 58q0 28 -2 57zM145 858l13 14q6 -45 10 -89t4 -91h12 l-10 221l4 -43h12l17 68q14 -29 21.5 -61.5t17.5 -63.5l12 2q18 80 49 152l6 -43l13 -2l18 59q4 -47 16.5 -95t51.5 -81h8l47 82h78l75 -144l78 -143l13 4l-15 207l72 20q8 -51 39 -100l10 4q6 39 15.5 77l19.5 75h53l10 -15l-16 -137l4 -8l-6 -31l12 -4l4 17l5 -45h12 l10 88l2 -29l12 -2q12 41 15.5 82t19.5 82l60 -15l10 -12l-4 -121l14 80l25 23q31 -29 41 -70t10 -82q0 -84 -53.5 -141.5t-139.5 -57.5h-870v-83h694l12 -13l-706 -704v-117l752 750l6 -35l-35 -6l31 -29l-27 6l-6 -10l24 -25l-41 2l-4 -10l37 -25h-82l-4 -10l43 -28 l-37 -11v-12l39 -12h-35v-13q12 0 39 -12t56.5 -27.5t57.5 -32t44 -22.5l-94 2l-12 27l-15 -43l-123 12l-4 -10l51 -31l-16 -6l74 -37q-18 -70 -32.5 -139.5t-25.5 -140.5l-30 32l-19 -49l-18 88h-12l-25 -55l12 -4l15 37l22 -90l12 2l19 55l22 -35l-6 -57l13 -2 q2 31 8 63.5t28 59.5q23 -12 38.5 -31.5t27.5 -40.5l10 2q27 53 33 110.5t6 116.5l43 -22l6 12l-49 29v2q55 -2 111.5 -8t111.5 -6l2 12q-57 14 -113.5 23.5t-111.5 21.5v67l43 -6l2 13l-45 14q53 4 93 -10l87 -31l6 12l-49 33l17 14l-131 66l2 16l-70 15l35 6q-16 8 -30 18 l-25 21l51 16l-2 12l-41 2l-33 25l35 -4l4 12l-23 21l45 -17l7 8l-52 43q12 -4 27.5 -0.5t28.5 7.5l-29 2l-8 49h2l698 -701v119l-649 654h649v83h-383q35 41 50.5 93.5t15.5 105.5q0 33 -7.5 58.5t-18.5 49t-24.5 47t-25.5 52.5l20 57h5l2 15l30 37l-14 24l16 39l15 -92h12 l16 80q-4 -27 -1 -53.5t12 -53.5h12l45 148v-99q0 -49 6 -98t22.5 -95t51.5 -83l10 4q0 111 -3 219.5t30 212.5l39 -94l12 4q-8 39 -9 78t-3 80q12 -16 17 -61.5t6 -98.5l2 -103q1 -50 3 -75h13q8 53 17 105t26 104q23 -47 42 -97.5t21 -105.5l12 -2l33 -156h12l5 101 q2 43 -4.5 86t-2.5 86l29 -33l18 59l121 -69l6 10q-12 6 -33.5 20.5t-44 27.5t-44 22.5t-33.5 7.5l8 -41l-6 -21l-25 53q-8 -20 -9 -55t0 -73.5t4 -76.5t1 -63q-12 53 -23.5 97.5t3.5 101.5l8 2q2 45 9 88t13 88l-12 2l-12 -78l4 49l-12 2l-15 -137q-4 55 -4 109 q0 55 -6 108q-4 -43 -11 -100t-1 -98l-45 106l-13 -2q-16 -41 -25 -83t-16 -85q-2 74 -3 151t-40 142l-6 -6v-59q0 -31 4 -60l-24 64l-12 -2q-37 -104 -36 -215t3 -218q-53 72 -59.5 162t-6.5 176v15v26q0 14 -3 21.5t-9 -0.5q-10 -45 -23.5 -88l-27.5 -84q-10 47 -3 89 t13 89l-12 2q-23 -72 -37 -141l-8 43q-4 20 -4 43q0 41 1 78.5t-5.5 72.5t-26 65.5t-58.5 55.5h84v84h-653l-4 18l-12 -18h-176v-84h166q-16 -98 -18.5 -197.5t20.5 -197.5q-16 4 -39 4q-20 0 -44 -1t-46.5 -3t-38.5 -2v-70q-8 29 -11 56l-4 57l-12 2l-20 -62l-7 35h-12 q-16 -37 -28.5 -73.5t-22.5 -77.5q-10 31 -17.5 59.5t-21.5 56.5l-27 -36l-4 28h-12l-2 -8q-4 41 -6 83t-2 83l-13 2l-10 -68l-16 17q-2 -41 -8.5 -82t-20.5 -82l12 -2l7 29q6 -51 5 -104.5t25 -100.5q10 37 9 72zM145 940l9 -47q-4 -12 -9 -16v63zM156 956q-6 23 -8.5 40.5 t2.5 41.5q0 -43 6 -82zM926 748l-2 -3v-4z" />
<glyph unicode="&#xad;" horiz-adv-x="555" d="M463 461l12 84h-432l-12 -84h432z" />
<glyph unicode="&#xae;" horiz-adv-x="817" d="M731 1104q18 135 -61 229q-82 94 -217 94t-242 -94q-109 -96 -127 -229q-18 -135 61 -230q82 -94 217 -94t242 94q109 97 127 230zM700 1104q-14 -115 -116 -205q-100 -88 -217 -88t-193 88q-76 86 -59 205q14 115 116 205q100 88 218 88q117 0 192 -88q75 -86 59 -205z M518 926l-96 172h16q104 0 117 100q8 43 -18 74q-25 27 -72 26h-143l-52 -372h29l25 172h63l94 -172h37zM526 1198q-10 -72 -82 -72h-116l18 144h117q75 0 63 -72z" />
<glyph unicode="&#xaf;" horiz-adv-x="804" d="M694 971l13 73h-584l-12 -73h583z" />
<glyph unicode="&#xb0;" horiz-adv-x="434" d="M387 1260q8 66 -35 118q-43 51 -110 52q-70 0 -127 -52q-59 -53 -67.5 -118.5t34.5 -118.5q43 -51 111 -51q70 0 126 51q60 53 68 119zM344 1262q-6 -49 -51 -88q-41 -39 -94 -39q-49 0 -82 38.5t-27 88.5q6 45 51 88q45 39 95 39q49 0 81.5 -39t26.5 -88z" />
<glyph unicode="&#xb1;" horiz-adv-x="794" d="M655 662l11 83h-209l30 209h-94l-31 -209h-208l-11 -83h209l-30 -209h94l30 209h209zM616 291l13 84h-527l-12 -84h526z" />
<glyph unicode="&#xb2;" d="M631 1343q10 80 -41 127q-49 49 -127 50q-74 0 -133 -45q-63 -43 -82 -111h41q55 119 168 119q59 0 100 -41q41 -39 35 -99q-10 -53 -55 -114l-375 -373h397l6 37h-315l221 215l67 68q26 27 35 38q50 66 58 129z" />
<glyph unicode="&#xb3;" d="M573 1038q23 139 -104 176q127 33 145 152q10 78 -32 123q-49 45 -121 45t-127 -43q-53 -39 -70 -113h43q33 117 150 117q57 0 88 -37q31 -35 24 -92l-16 -51l-29 -39q-41 -35 -100 -35h-39l-6 -53h39l41 -8q14 -6 37 -25q49 -41 36 -117q-10 -63 -57 -104 q-51 -41 -110 -41q-53 0 -84 35q-33 33 -39 71h-41q18 -143 159 -143q84 0 142 51q63 49 71 131z" />
<glyph unicode="&#xb4;" horiz-adv-x="835" d="M657 1233l-43 49l-311 -272l43 -49z" />
<glyph unicode="&#xb5;" horiz-adv-x="1607" d="M1085 1085q25 172 -84 281q-113 109 -284 109q-203 0 -346 -136q-104 -102 -135 -211h92q35 92 102 158q109 106 275 107q135 0 225 -88q90 -90 71 -220q-18 -133 -122 -256l-832 -829h885l10 84h-700l487 475l109 110l65 66q157 172 182 350zM743 911q10 70 -34 119 q-43 51 -111 51q-70 0 -127 -51q-59 -53 -67.5 -118.5t34.5 -118.5q43 -51 111 -52q70 0 127 52q59 52 67 118zM700 913q-6 -49 -51 -88q-41 -39 -92 -39t-84 39t-27 88q6 45 52 88q45 39 94 39t81.5 -39t26.5 -88zM1481 911q10 70 -35 119q-43 51 -111 51q-70 0 -127 -51 q-59 -53 -67 -118.5t35 -118.5q43 -51 110 -52q70 0 127 52q60 52 68 118zM1438 913q-6 -49 -52 -88q-41 -39 -92 -39t-83.5 39t-26.5 88q6 45 51 88q45 39 94 39t82 -39t27 -88zM545 879q-4 -18 8 -31.5t31 -13.5q18 0 32.5 13t18.5 31.5t-8.5 32t-30.5 13.5t-32.5 -13.5 t-18.5 -31.5zM1282 872q-2 -18 9.5 -31.5t29.5 -13.5t33.5 13.5t17.5 31.5q4 18 -7 32t-30 14q-20 0 -34.5 -14t-18.5 -32zM1083 -264l-28 45q-88 -76 -187 -76q-106 0 -174 80l-51 -49q74 -90 209 -90q141 0 231 90z" />
<glyph unicode="&#xb6;" horiz-adv-x="1034" d="M803 -125l221 1587h-84l-221 -1587h84zM608 -125l221 1587h-221q-168 0 -293 -98q-131 -102 -155 -268q-23 -170 76 -267q98 -98 270 -98h137l-119 -856h84z" />
<glyph unicode="&#xb7;" horiz-adv-x="565" d="M362 664q-6 68 -59 67q-70 -12 -76 -67q0 -35 13 -50q25 -18 45 -18q67 0 77 68z" />
<glyph unicode="&#x2219;" horiz-adv-x="565" d="M362 664q-6 68 -59 67q-70 -12 -76 -67q0 -35 13 -50q25 -18 45 -18q67 0 77 68z" />
<glyph unicode="&#xb8;" horiz-adv-x="532" d="M393 -193q12 84 -61 109l41 84h-92l-48 -100q70 -27 64 -72q-6 -49 -66 -49l-47 14q-29 18 -39 31l-12 -82q51 -51 125 -51q55 0 90 33q39 32 45 83z" />
<glyph unicode="&#xb9;" d="M401 858l95 660h-123l-31 -39h111l-88 -621h36z" />
<glyph unicode="&#xba;" horiz-adv-x="763" d="M657 1130q14 111 -49 187t-176 76t-196 -76q-88 -78 -103 -187q-14 -111 49 -186q68 -76 176 -76q113 0 197 76q86 75 102 186zM623 688l8 60h-578l-8 -60h578zM608 1130q-12 -84 -84 -149q-72 -63 -157 -63q-86 0 -141.5 63t-43.5 149q12 84 84 150q72 63 160 63 t139 -63q55 -64 43 -150z" />
<glyph unicode="&#xbb;" horiz-adv-x="899" d="M846 522l-334 387l-47 -43l297 -344l-383 -336l37 -43zM539 522l-334 387l-47 -43l297 -344l-383 -336l37 -43z" />
<glyph unicode="&#xbc;" d="M463 858l92 660h-123l-31 -39h111l-86 -621h37zM678 725l6 53h-520l-6 -53h520zM500 123l6 37h-57l71 506l-454 -543h337l-16 -125h39l16 125h58zM410 160h-271l324 383z" />
<glyph unicode="&#xbd;" d="M475 858l92 660h-123l-30 -39h110l-86 -621h37zM682 725l6 53h-520l-6 -53h520zM578 487q12 78 -39 127q-49 49 -129 50q-70 0 -134 -46q-61 -43 -79 -110h41q55 119 168 119q59 0 100 -41q43 -39 33 -99q-6 -51 -54 -114l-374 -373h397l4 37h-315l221 215q88 86 104 106 q46 61 56 129z" />
<glyph unicode="&#xbe;" d="M635 1038q18 139 -105 176q127 35 144 152q12 76 -33 123q-45 45 -119 45q-72 0 -127 -43q-55 -41 -71 -113h43q33 117 149 117q55 0 90 -37q31 -35 23 -92l-15 -51l-30 -39q-39 -35 -99 -35h-39l-8 -53h39l41 -8q18 -8 39 -25q45 -41 37 -117q-10 -63 -57 -104 q-51 -41 -111 -41q-55 0 -86 35q-33 37 -39 71h-41q18 -143 160 -143q84 0 143.5 51t71.5 131zM664 725l8 53h-522l-9 -53h523zM508 123l4 37h-57l71 506l-452 -543h338l-19 -125h39l19 125h57zM416 160h-271l326 383z" />
<glyph unicode="&#xbf;" horiz-adv-x="960" d="M668 1253q-4 72 -62 72q-72 -12 -82 -72q4 -72 62 -71q72 12 82 71zM801 109l-74 34q-72 -98 -135 -147q-106 -78 -227 -78q-119 0 -195 53q-88 61 -72 176q12 88 97 172q20 20 63 52l109 75l192 129q158 109 176 240q12 88 -41 141q-55 51 -143 52q-117 0 -186 -62 l38 -67q33 27 62 32q25 10 74 11q49 0 82 -29q31 -29 24 -78q-14 -106 -127 -180l-190 -125q-164 -109 -189 -133q-106 -104 -125 -230q-23 -160 82 -239q90 -72 256 -72q295 1 449 273z" />
<glyph unicode="&#xc0;" horiz-adv-x="1296" d="M797 1581l-213 248l-47 -45l206 -244zM1104 0l-373 1509l-797 -1509h82l232 438h665l107 -438h84zM891 522h-598l407 774z" />
<glyph unicode="&#xc1;" horiz-adv-x="1296" d="M993 1772l-35 40l-260 -229l35 -39zM1106 0l-375 1509l-794 -1509h81l232 438h665l107 -438h84zM893 522h-598l407 774z" />
<glyph unicode="&#xc2;" horiz-adv-x="1296" d="M991 1550l-213 248l-282 -248l36 -43l234 203l176 -203zM1106 0l-373 1509l-796 -1509h81l232 438h665l107 -438h84zM893 522h-598l407 774z" />
<glyph unicode="&#xc3;" horiz-adv-x="1286" d="M1085 1638l-53 45q-25 -23 -41 -34t-24 -15l-27 -8h-47l-70 8l-55 25q-10 6 -18.5 10t-14.5 8q-53 20 -104 21q-135 0 -209 -105l51 -45q61 68 137 68q43 0 72 -12l55 -25q55 -37 154 -37q61 0 115 29l34 26zM1114 0l-375 1509l-794 -1509h82l231 438h666l106 -438h84z M901 522h-598l408 774z" />
<glyph unicode="&#xc4;" horiz-adv-x="1286" d="M958 1630q-6 68 -59 68q-70 -12 -76 -68q-2 -31 13 -49q20 -18 45 -18q67 -1 77 67zM678 1630q-6 68 -60 68q-70 -12 -75 -68q-2 -31 12 -49q20 -18 45 -18q68 -1 78 67zM1114 0l-375 1509l-794 -1509h82l231 438h666l106 -438h84zM901 522h-598l408 774z" />
<glyph unicode="&#xc5;" horiz-adv-x="1296" d="M893 1665q10 59 -27 98q-35 41 -92 41t-104 -41t-56 -98q-6 -59 29 -98q35 -41 92 -41q53 0 105 41q47 41 53 98zM1106 0l-373 1509l-796 -1509h81l232 438h665l107 -438h84zM856 1667q-2 -37 -41 -72q-35 -33 -76 -32q-45 0 -69 30q-25 27 -19 74q6 41 41 74 q35 29 78 28q41 0 66 -30q26 -31 20 -72zM893 522h-598l407 774z" />
<glyph unicode="&#xc6;" horiz-adv-x="1515" d="M1303 0l12 84h-621l94 678h621l12 84h-618l74 532h618l12 84h-694l-856 -1462h82l393 670h260l-94 -670h705zM702 752h-221l293 497z" />
<glyph unicode="&#xc7;" horiz-adv-x="1437" d="M1309 158l12 96q-68 -45 -121 -76t-92 -49q-143 -66 -328 -66q-291 0 -454 189q-160 186 -119 479t254 481q217 188 508 189q88 0 166.5 -16.5t150.5 -47.5q96 -45 172 -114l15 104q-74 66 -160 100q-141 55 -334 56q-332 0 -569 -211q-242 -209 -287 -541 q-45 -322 123 -526q184 -225 465 -225l-43 -76q25 -6 43 -31q18 -20 14 -47q-6 -49 -66 -49q-45 0 -75 39l-43 -68q49 -57 133 -57q123 0 141 123q10 61 -49 108l31 58q180 0 327 63l74 43z" />
<glyph unicode="&#xc8;" horiz-adv-x="968" d="M637 1581l-211 248l-49 -45l209 -244zM719 0l12 84h-618l94 672h618l13 90h-619l76 532h618l13 84h-703l-207 -1462h703z" />
<glyph unicode="&#xc9;" horiz-adv-x="968" d="M846 1772l-37 45l-262 -238l39 -35zM721 0l10 84h-618l96 672h618l13 90h-619l74 532h618l13 84h-703l-205 -1462h703z" />
<glyph unicode="&#xca;" horiz-adv-x="968" d="M846 1591l-211 248l-283 -248l37 -43l234 203l176 -203zM719 0l12 84h-618l94 672h618l13 90h-619l74 532h618l13 84h-703l-205 -1462h703z" />
<glyph unicode="&#xcb;" horiz-adv-x="968" d="M819 1630q-6 68 -59 68q-70 -12 -76 -68q-2 -31 12 -49q20 -18 45 -18q68 -1 78 67zM539 1630q-6 68 -60 68q-70 -12 -76 -68q-2 -31 13 -49q20 -18 45 -18q68 -1 78 67zM729 0l12 84h-618l94 672h619l12 90h-619l74 532h619l12 84h-703l-204 -1462h702z" />
<glyph unicode="&#xcc;" horiz-adv-x="393" d="M358 1581l-211 248l-49 -45l209 -244zM111 0l206 1462h-81l-207 -1462h82z" />
<glyph unicode="&#xcd;" horiz-adv-x="393" d="M532 1772l-32 40l-262 -229l36 -39zM113 0l204 1462h-81l-205 -1462h82z" />
<glyph unicode="&#xce;" horiz-adv-x="393" d="M535 1550l-211 248l-285 -248l39 -43l233 203l176 -203zM113 0l206 1462h-81l-207 -1462h82z" />
<glyph unicode="&#xcf;" horiz-adv-x="393" d="M514 1630q-6 68 -59 68q-70 -12 -76 -68q-2 -31 12 -49q20 -18 45 -18q68 -1 78 67zM233 1630q-6 68 -59 68q-70 -12 -76 -68q-2 -31 13 -49q20 -18 45 -18q67 -1 77 67zM121 0l205 1462h-82l-205 -1462h82z" />
<glyph unicode="&#xd0;" horiz-adv-x="1409" d="M1296 733q43 297 -102 508q-154 221 -449 221h-487l-96 -684h-90l-13 -84h91l-97 -694h488q297 0 512 221q200 207 243 512zM1212 733q-43 -303 -245 -481q-186 -168 -414 -168h-406l84 610h261l12 84h-260l86 602h405q258 0 391 -196q123 -185 86 -451z" />
<glyph unicode="&#xd1;" horiz-adv-x="1464" d="M1180 1638l-54 45q-27 -23 -42 -34t-23 -15l-27 -8h-47l-69 8l-58 25q-18 12 -31 18q-55 20 -104 21q-135 0 -209 -105l51 -45q61 68 135 68q45 0 74 -12l55 -25q55 -37 152 -37q63 0 115 29l37 26zM1212 -25l209 1487h-84l-178 -1269l-911 1280l-207 -1473h82l174 1241z " />
<glyph unicode="&#xd2;" horiz-adv-x="1683" d="M979 1581l-213 248l-47 -45l209 -244zM1583 731q45 332 -135 543q-182 209 -512 209q-334 0 -571 -211q-242 -209 -287 -541q-45 -330 133 -543q180 -209 514 -208q334 0 571 210q242 209 287 541zM1499 731q-39 -293 -254 -483q-213 -184 -510 -185q-293 0 -452 189 q-162 186 -121 479q43 297 256 481q213 188 506 189q293 0 456 -189q162 -188 119 -481z" />
<glyph unicode="&#xd3;" horiz-adv-x="1683" d="M1169 1772l-32 40l-260 -229l32 -39zM1585 731q45 332 -135 543q-182 209 -514 209q-334 0 -571 -211q-238 -209 -285 -541q-47 -334 133 -542.5t512 -208.5t573 210q242 209 287 541zM1501 731q-43 -297 -254 -483q-215 -184 -510 -185q-291 0 -454 189 q-162 190 -119 479q41 293 254 481q217 188 508 189q295 0 454 -189q162 -184 121 -481z" />
<glyph unicode="&#xd4;" horiz-adv-x="1683" d="M1192 1602l-213 247l-283 -247l37 -43l234 202l176 -202zM1581 731q49 330 -133 543q-182 209 -514 209q-334 0 -572 -211q-238 -207 -286 -541q-45 -332 135 -543q178 -209 512 -208q334 0 571 210q240 207 287 541zM1497 731q-39 -293 -254 -483q-213 -184 -508 -185 q-295 0 -454.5 188.5t-120.5 479.5q43 297 256 481q217 188 506 189q297 0 456 -189q162 -188 119 -481z" />
<glyph unicode="&#xd5;" horiz-adv-x="1683" d="M1274 1663l-53 45q-27 -23 -43.5 -34t-24.5 -15l-25 -8h-47l-71 8l-56 24l-32 19q-53 20 -103 20q-135 0 -209 -104l52 -45q57 68 135 67q43 0 71 -12l58 -24q55 -37 151 -37q61 0 115 28l37 27zM1591 731q45 332 -135 543q-182 209 -514 209q-334 0 -571 -211 q-240 -211 -285 -541q-47 -334 133 -542.5t512 -208.5t574 210q241 209 286 541zM1507 731q-43 -297 -254 -483q-213 -184 -510 -185q-291 0 -454 189q-162 190 -119 479q41 293 254 481q217 188 508 189q295 0 454 -189q162 -184 121 -481z" />
<glyph unicode="&#xd6;" horiz-adv-x="1683" d="M1165 1630q-4 68 -57 68q-68 -12 -78 -68q0 -35 14 -49q20 -18 46 -18q65 -1 75 67zM885 1630q-4 68 -58 68q-68 -12 -77 -68q0 -35 14 -49q20 -18 45 -18q66 -1 76 67zM1593 731q45 332 -135 543q-182 209 -514 209q-334 0 -571 -211q-238 -209 -285 -541 q-49 -330 133 -543q180 -209 512 -208q334 0 572 210q239 207 288 541zM1509 731q-43 -297 -254 -483q-215 -184 -510 -185q-291 0 -454 189q-162 190 -119 479q41 293 254 481q217 188 508 189q295 0 455 -189q161 -184 120 -481z" />
<glyph unicode="&#xd7;" d="M434 858l94 660h-122l-31 -39h110l-88 -621h37zM647 725l8 53h-520l-8 -53h520zM508 168q18 127 -102 174q47 10 83 59q33 41 39 93q12 74 -28.5 121t-114.5 47q-76 0 -129 -48q-53 -45 -66 -120q-6 -47 17 -95q20 -43 63 -57q-129 -47 -147 -174q-12 -78 33 -133 q43 -53 133 -53q86 0 145 51q62 51 74 135zM492 494q-6 -53 -50 -95q-47 -37 -100 -37q-55 0 -88 39q-33 37 -27 93q10 55 54 94q43 37 98 37q57 0 88 -39q33 -37 25 -92zM471 168q-8 -61 -59 -107q-53 -43 -117 -43q-68 0 -105 43q-41 41 -30 107q8 61 61 108q51 45 117 46 q63 0 102 -45.5t31 -108.5z" />
<glyph unicode="&#xd8;" horiz-adv-x="1683" d="M1608 731q55 379 -189 594l103 123l-68 47l-100 -119q-164 106 -393 107q-334 0 -572 -211q-242 -209 -287 -541q-25 -182 25 -338q53 -168 178 -266l-98 -119l65 -49l99 119q168 -98 379 -98q334 0 571 210q242 209 287 541zM1524 731q-39 -293 -254 -483 q-213 -184 -510 -185q-184 0 -330 84l930 1108q213 -190 164 -524zM1296 1307l-931 -1110q-109 88 -156 225t-23 309q43 297 256 481q213 188 506 189q192 0 348 -94z" />
<glyph unicode="&#xd9;" horiz-adv-x="1136" d="M737 1581l-211 248l-49 -45l209 -244zM928 365l153 1097h-84l-153 -1097q-18 -137 -135 -220q-109 -76 -248 -75q-145 0 -228 73q-94 82 -71 222l153 1097h-82l-153 -1097q-25 -180 84 -283q106 -96 285 -96q184 0 309 94q145 109 170 285z" />
<glyph unicode="&#xda;" horiz-adv-x="1136" d="M938 1772l-33 40l-262 -229l35 -39zM928 365l155 1097h-84l-155 -1097q-18 -137 -135 -220q-106 -76 -248 -75q-145 0 -228 73q-90 78 -71 222l155 1097h-81l-156 -1097q-25 -178 86 -283q102 -96 283 -96q184 0 311 94q143 107 168 285z" />
<glyph unicode="&#xdb;" horiz-adv-x="1136" d="M924 1602l-211 247l-285 -247l39 -43l233 202l177 -202zM926 365l153 1097h-84l-153 -1097q-18 -137 -135 -220q-106 -76 -248 -75q-145 0 -228 73q-90 78 -71 222l153 1097h-82l-153 -1097q-25 -178 86 -283q102 -96 282 -96q184 0 312 94q143 109 168 285z" />
<glyph unicode="&#xdc;" horiz-adv-x="1136" d="M893 1630q-4 68 -57 68q-68 -12 -78 -68q0 -35 14 -49q20 -18 43 -18q68 -1 78 67zM612 1630q-4 68 -57 68q-68 -12 -78 -68q0 -35 15 -49q20 -18 43 -18q67 -1 77 67zM936 365l156 1097h-84l-156 -1097q-18 -137 -135 -220q-106 -76 -248 -75q-145 0 -227 73 q-90 78 -72 222l156 1097h-82l-156 -1097q-25 -178 86 -283q102 -96 283 -96q184 0 311 94q143 107 168 285z" />
<glyph unicode="&#xdd;" horiz-adv-x="1046" d="M897 1772l-37 45l-262 -238l39 -35zM1063 1462h-96l-453 -633l-272 633h-97l314 -731l-103 -731h84l103 731z" />
<glyph unicode="&#xde;" horiz-adv-x="1003" d="M911 743q23 168 -77 265q-98 98 -269 98h-274l49 356h-82l-205 -1462h82l53 375h275q166 0 297 102q126 98 151 266zM827 743q-18 -133 -118 -211q-98 -74 -238 -73h-272l80 563h272q139 0 211 -70q83 -78 65 -209z" />
<glyph unicode="&#xdf;" horiz-adv-x="1103" d="M991 430q29 182 -73 291q-78 88 -218 106q180 109 205 303q23 141 -67 238q-90 94 -234 94q-164 0 -264 -100q-102 -96 -127 -262l-35 -254h-117l-12 -84h117l-107 -762h82l154 1098q41 281 297 280q106 0 178 -71q66 -70 51 -177q-14 -113 -98 -198.5t-195 -85.5 l-12 -82q440 0 391 -334q-18 -139 -116 -242q-104 -104 -242 -104h-234l-12 -84h232q184 0 311 123q120 119 145 307z" />
<glyph unicode="&#xe0;" horiz-adv-x="1044" d="M635 1008l-238 274l-51 -49l229 -272zM842 0l119 846h-84l-23 -148q-111 160 -315 160q-182 0 -328 -127q-141 -125 -170 -309q-25 -186 84 -311q106 -125 293 -125q205 0 358 159l-18 -145h84zM831 422q-18 -145 -137 -252q-121 -102 -266 -102q-143 0 -235 104 q-88 104 -70 250q20 145 139 252q121 102 266 102q143 0 236 -104q90 -105 67 -250z" />
<glyph unicode="&#xe1;" horiz-adv-x="1044" d="M846 1233l-39 49l-311 -274l43 -47zM842 0l119 846h-84l-23 -148q-111 160 -315 160q-182 0 -328 -127q-141 -125 -170 -309q-25 -186 84 -311q106 -125 293 -125q205 0 358 159l-18 -145h84zM831 422q-18 -145 -137 -252q-121 -102 -266 -102q-143 0 -235 104 q-88 104 -70 250q20 145 139 252q121 102 266 102q143 0 236 -104q90 -105 67 -250z" />
<glyph unicode="&#xe2;" horiz-adv-x="1044" d="M803 1016l-211 246l-285 -246l39 -45l234 203l176 -203zM842 0l119 846h-84l-21 -148q-115 160 -315 160q-182 0 -328 -127q-141 -125 -170 -309q-25 -186 82 -311q111 -125 293 -125q207 0 360 159l-20 -145h84zM834 422q-23 -150 -140 -252q-119 -102 -264 -102 q-147 0 -235.5 104t-69.5 250q23 150 139 252q119 102 264 102t236 -104q93 -105 70 -250z" />
<glyph unicode="&#xe3;" horiz-adv-x="1044" d="M915 1096l-51 45q-59 -57 -149 -58l-62 9l-55 26q-27 20 -55 29q-14 4 -34 6t-46 2q-135 0 -209 -104l49 -45q74 68 150 67l59 -8q14 -4 27.5 -11t27.5 -18q49 -37 140 -37q70 0 127 29l36 27zM850 0l119 846h-84l-21 -148q-115 160 -315 160q-184 0 -328 -127 q-145 -127 -170 -309q-27 -182 82 -311q106 -125 293 -125q203 0 360 159l-20 -145h84zM842 422q-20 -145 -140 -252q-119 -102 -266 -102q-145 0 -233 104q-92 104 -70 250q23 150 139 252q119 102 265 102q145 0 235 -104q88 -105 70 -250z" />
<glyph unicode="&#xe4;" horiz-adv-x="1044" d="M770 1065q-6 68 -59 68q-70 -12 -76 -68q0 -35 12 -49q20 -18 45 -19q68 0 78 68zM489 1065q-6 68 -59 68q-70 -12 -76 -68q0 -35 13 -49q20 -18 45 -19q67 0 77 68zM852 0l119 846h-84l-21 -148q-115 160 -315 160q-184 0 -330 -127q-143 -129 -168 -309 q-27 -182 82 -311q106 -125 293 -125q203 0 360 159l-20 -145h84zM844 422q-20 -145 -139 -252q-121 -102 -267 -102q-143 0 -235 104q-90 104 -68 250q18 145 137 252q121 102 267 102q145 0 235 -104q88 -105 70 -250z" />
<glyph unicode="&#xe5;" horiz-adv-x="1044" d="M735 1102q12 66 -33 119q-45 51 -112 51q-68 0 -125 -51.5t-70 -118.5q-8 -66 35 -119q45 -51 113 -51t125 51q59 53 67 119zM842 0l119 846h-84l-21 -148q-115 160 -315 160q-184 0 -328 -127q-145 -127 -170 -309q-27 -182 82 -311q106 -125 293 -125q203 0 360 159 l-20 -145h84zM694 1104q-8 -49 -51 -88q-45 -39 -94 -39q-51 0 -82 39q-35 41 -27 88q6 49 52 88q41 39 92 39t83.5 -39t26.5 -88zM834 422q-20 -145 -140 -252q-119 -102 -266 -102q-145 0 -233 104q-92 104 -70 250q23 150 139 252q119 102 264 102t236 -104 q88 -105 70 -250z" />
<glyph unicode="&#xe6;" horiz-adv-x="1798" d="M1729 440q29 188 -82 301q-109 115 -295 115q-238 0 -385 -176l22 166h-84l-20 -148q-115 160 -316 160q-182 0 -327 -127q-141 -125 -170 -309q-25 -186 82 -311q111 -125 292 -125q203 0 361 159l-21 -145h84l23 160q102 -176 336 -176q78 0 145 20q174 51 275 205 l-70 35q-88 -113 -178 -150q-76 -29 -160 -28q-170 0 -250 102q-80 100 -55 272h793zM1647 520h-686q119 254 378 254q152 0 236 -90q62 -68 72 -164zM862 422q-23 -150 -139 -252q-119 -102 -264 -102q-147 0 -236 104q-90 106 -69 250q23 150 139 252q119 102 264 102 t236 -104q89 -107 69 -250z" />
<glyph unicode="&#xe7;" horiz-adv-x="897" d="M762 59l14 111l-69 -51q-96 -51 -203 -51q-154 0 -240 100t-63 254q20 154 135 256q113 100 268 100q109 0 191 -51l26 -25l27 -26l16 110l-61 37q-86 37 -187 37q-188 0 -331.5 -125t-167.5 -313q-27 -178 65 -299t267 -139l-39 -80l34 -31q18 -20 15 -43l-6 -16l-9 -13 q-16 -16 -34 -16q-25 0 -39 12l-29 29l-37 -72q33 -51 96 -51q49 0 91 33q43 33 49 80q0 78 -41 100l37 70q82 0 159 37z" />
<glyph unicode="&#xe8;" horiz-adv-x="1003" d="M651 1008l-235 274l-54 -49l230 -272zM918 440q25 188 -82 303q-109 117 -295 117q-193 0 -332 -125q-143 -125 -168 -313q-29 -188 80 -313q104 -125 295 -125q80 0 147 20q174 53 275 205l-72 35q-84 -113 -178 -150q-74 -29 -160 -28q-170 0 -248 102q-80 100 -55 272 h793zM834 520h-687q119 258 381 258q123 0 211.5 -69.5t94.5 -188.5z" />
<glyph unicode="&#xe9;" horiz-adv-x="1003" d="M813 1233l-37 49l-313 -274l41 -47zM918 440q25 188 -82 303q-109 117 -295 117q-193 0 -332 -125q-143 -125 -168 -313q-29 -188 80 -313q104 -125 295 -125q80 0 147 20q174 53 275 205l-72 35q-84 -113 -178 -150q-74 -29 -160 -28q-170 0 -248 102q-80 100 -55 272 h793zM834 520h-687q119 258 381 258q123 0 211.5 -69.5t94.5 -188.5z" />
<glyph unicode="&#xea;" horiz-adv-x="1003" d="M817 1016l-211 246l-282 -246l36 -45l234 203l176 -203zM918 440q27 186 -80 303q-109 117 -297 117q-193 0 -332 -125q-139 -123 -168 -313q-25 -188 80 -313q106 -125 297 -125q80 0 147 20q174 53 275 205l-72 35q-88 -113 -178 -150q-76 -29 -160 -28 q-170 0 -250 102q-76 100 -55 272h793zM836 520h-686q117 258 380 258q123 0 211.5 -69.5t94.5 -188.5z" />
<glyph unicode="&#xeb;" horiz-adv-x="1003" d="M784 1065q-6 68 -59 68q-70 -12 -76 -68q0 -35 13 -49q25 -18 45 -19q67 0 77 68zM504 1065q-6 68 -60 68q-70 -12 -75 -68q0 -35 12 -49q25 -18 45 -19q68 0 78 68zM928 440q25 188 -82 303q-109 117 -295 117q-193 0 -332 -125q-143 -125 -168 -313q-29 -188 80 -313 q104 -125 297 -125q78 0 145 20q174 53 275 205l-72 35q-84 -113 -178 -150q-74 -29 -160 -28q-170 0 -248 102q-80 100 -55 272h793zM844 520h-686q119 258 381 258q127 0 211 -69q92 -72 94 -189z" />
<glyph unicode="&#xec;" horiz-adv-x="376" d="M293 1008l-234 274l-53 -49l232 -272zM143 0l119 846h-84l-119 -846h84z" />
<glyph unicode="&#xed;" horiz-adv-x="376" d="M555 1233l-41 49l-313 -274l45 -47zM143 0l119 846h-84l-119 -846h84z" />
<glyph unicode="&#xee;" horiz-adv-x="522" d="M565 1016l-211 246l-284 -246l39 -45l233 203l176 -203zM215 0l119 846h-84l-119 -846h84z" />
<glyph unicode="&#xef;" horiz-adv-x="376" d="M465 1065q-4 68 -57 68q-68 -12 -78 -68q0 -35 14 -49q20 -18 45 -19q66 0 76 68zM184 1065q-4 68 -57 68q-68 -14 -78 -68q2 -68 60 -68q65 0 75 68zM154 0l118 846h-84l-118 -846h84z" />
<glyph unicode="&#xf0;" horiz-adv-x="1019" d="M909 422q23 150 20 267.5t-28 209.5q-43 150 -176 283l203 116l-74 54l-197 -113q-92 74 -200 104l-84 -71l98 -43l86 -47l-195 -113l76 -53l191 110q186 -150 205 -405q-113 137 -299 137q-182 0 -328 -127t-170 -309q-25 -186 82 -311q111 -125 293 -125q184 0 327 127 q145 127 170 309zM827 422q-23 -150 -139 -252q-119 -102 -264 -102q-147 0 -236 104q-90 106 -69 250q23 150 139 252q119 102 264 102t236 -104q89 -107 69 -250z" />
<glyph unicode="&#xf1;" horiz-adv-x="923" d="M862 1096l-53 45q-27 -23 -43 -34t-25 -15l-24 -9h-47l-72 9l-55 24q-20 12 -33 19q-53 20 -102 20q-135 0 -211 -104l51 -45q61 68 137 67q43 0 72 -12l55 -25q57 -37 154 -37q61 0 114 29l37 27zM707 0l73 514q20 162 -49 252q-68 90 -229 90q-186 0 -260 -113l14 103 h-84l-119 -846h84l74 514q14 117 88 191q72 70 190 69q242 0 205 -268l-71 -506h84z" />
<glyph unicode="&#xf2;" horiz-adv-x="1019" d="M649 1008l-237 274l-52 -49l230 -272zM913 422q29 186 -82 311q-109 127 -290 127q-184 0 -328 -129q-143 -125 -172 -309q-25 -186 84 -311q106 -125 293 -125q182 0 327 127q143 129 168 309zM831 422q-18 -145 -137 -252q-121 -102 -266 -102q-143 0 -235 104 q-88 104 -70 250q20 141 141 250q119 106 264 106q147 0 238 -104q85 -102 65 -252z" />
<glyph unicode="&#xf3;" horiz-adv-x="1019" d="M821 1233l-39 49l-311 -274l43 -47zM913 422q29 186 -82 311q-109 127 -290 127q-184 0 -328 -129q-143 -125 -172 -309q-25 -186 84 -311q106 -125 293 -125q182 0 327 127q143 129 168 309zM831 422q-18 -145 -137 -252q-121 -102 -266 -102q-143 0 -235 104 q-88 104 -70 250q20 141 141 250q119 106 264 106q147 0 238 -104q85 -102 65 -252z" />
<glyph unicode="&#xf4;" horiz-adv-x="1019" d="M803 1016l-211 246l-285 -246l39 -45l234 203l176 -203zM915 422q27 182 -81 311q-109 127 -293 127q-180 0 -328 -129q-145 -127 -170 -309q-25 -186 82 -311q111 -125 293 -125q184 0 327 127q145 127 170 309zM834 422q-23 -150 -140 -252q-119 -102 -264 -102 q-147 0 -235.5 104t-69.5 250q20 141 141 250q119 106 264 106q147 0 238 -104q86 -102 66 -252z" />
<glyph unicode="&#xf5;" horiz-adv-x="1019" d="M899 1096l-53 45q-27 -23 -42.5 -34t-23.5 -15l-26 -9h-47l-70 9l-57 24q-18 12 -31 19q-55 20 -105 20q-135 0 -208 -104l51 -45q61 68 137 67q43 0 72 -12l55 -25q55 -37 151 -37q63 0 115 29l37 27zM924 422q25 186 -82 311q-111 127 -293 127q-184 0 -328 -129 q-145 -127 -170 -309q-27 -182 82 -311q106 -125 293 -125q182 0 328 127q141 125 170 309zM842 422q-20 -145 -140 -252q-119 -102 -266 -102q-145 0 -233 104q-92 104 -70 250q18 141 139 250q121 106 265 106q152 0 237 -104q88 -102 68 -252z" />
<glyph unicode="&#xf6;" horiz-adv-x="1019" d="M778 1065q-6 68 -59 68q-70 -12 -76 -68q0 -35 12 -49q20 -18 45 -19q68 0 78 68zM498 1065q-6 68 -60 68q-70 -12 -76 -68q0 -35 13 -49q20 -18 45 -19q68 0 78 68zM926 422q25 186 -84 311q-109 127 -291 127q-184 0 -328 -129q-145 -127 -170 -309q-27 -182 82 -311 q106 -125 293 -125q182 0 328 127q141 125 170 309zM844 422q-20 -145 -139 -252q-121 -102 -267 -102q-143 0 -235 104q-90 104 -68 250q18 141 139 250q119 106 265 106q147 0 237 -104q86 -98 68 -252z" />
<glyph unicode="&#xf7;" horiz-adv-x="741" d="M481 780q-6 68 -59 68q-70 -12 -76 -68q-2 -31 12 -49q20 -18 45 -18q66 -1 78 67zM637 489l14 105h-526l-14 -105h526zM412 299q-4 68 -58 68q-70 -12 -78 -68q0 -31 15 -49q20 -18 45 -19q66 0 76 68z" />
<glyph unicode="&#xf8;" horiz-adv-x="1019" d="M944 422q27 193 -98 323l100 121l-65 49l-99 -116q-94 59 -213 59q-182 0 -327.5 -127t-169.5 -309q-29 -207 110 -336l-88 -106l62 -52l92 109q88 -51 198 -51q182 0 327.5 127t170.5 309zM862 422q-23 -150 -139 -252q-119 -102 -264 -102l-82 8l-37 12l-35 16l486 574 q91 -102 71 -256zM725 731l-485 -577q-109 104 -86 268q23 150 139 252q119 102 264 102q90 0 168 -45z" />
<glyph unicode="&#xf9;" horiz-adv-x="878" d="M553 1008l-236 274l-53 -49l230 -272zM711 317l75 529h-81l-76 -529q-35 -252 -271 -251q-119 0 -165 65q-45 61 -29 186l76 529h-84l-76 -529q-20 -156 47 -245q70 -88 219 -88q154 0 250 90q95 89 115 243z" />
<glyph unicode="&#xfa;" horiz-adv-x="878" d="M803 1233l-37 49l-313 -274l41 -47zM711 317l75 529h-81l-76 -529q-35 -252 -271 -251q-119 0 -165 65q-45 61 -29 186l76 529h-84l-76 -529q-20 -156 47 -245q70 -88 219 -88q154 0 250 90q95 89 115 243z" />
<glyph unicode="&#xfb;" horiz-adv-x="878" d="M743 1016l-213 246l-282 -246l37 -45l233 203l176 -203zM713 317l73 529h-81l-74 -529q-35 -252 -271 -251q-123 0 -165 65q-47 66 -29 186l74 529h-84l-74 -529q-20 -156 47 -245q70 -88 219 -88q154 0 248 90q97 89 117 243z" />
<glyph unicode="&#xfc;" horiz-adv-x="878" d="M717 1065q-6 68 -60 68q-70 -12 -75 -68q0 -35 12 -49q25 -18 45 -19q68 0 78 68zM436 1065q-6 68 -59 68q-70 -12 -76 -68q0 -35 12 -49q25 -18 45 -19q68 0 78 68zM721 317l76 529h-82l-76 -529q-35 -252 -270 -251q-119 0 -166 65q-45 61 -29 186l76 529h-84l-76 -529 q-23 -158 49 -245q68 -88 219 -88q152 0 248 90q95 89 115 243z" />
<glyph unicode="&#xfd;" horiz-adv-x="1253" d="M612 0l207 1462h-276l-68 -84h248l-195 -1378h84zM522 1055q8 66 -35 119q-45 51 -112 51q-68 0 -125 -51q-59 -53 -68 -119q-10 -68 33 -119q45 -51 113 -51t125 51q61 56 69 119zM479 1057q-6 -45 -51 -88q-45 -39 -94 -39t-82 39t-27 88t51 88q41 39 93 39 q51 0 83.5 -39t26.5 -88zM1260 1055q8 66 -35 119q-45 51 -113 51t-125 -51q-59 -53 -67 -119q-10 -68 32 -119q45 -51 113 -51t125 51q62 56 70 119zM1217 1057q-6 -45 -52 -88q-45 -39 -94 -39t-82 39t-26.5 88t51.5 88q41 39 92 39t84 -39t27 -88zM322 1022 q-2 -18 9 -31.5t29 -13.5t34 13.5t18 31.5q4 18 -7.5 31.5t-31.5 13.5q-18 0 -32.5 -13.5t-18.5 -31.5zM1061 1016q-4 -18 8 -31.5t31 -13.5q18 0 32.5 13t18.5 31.5t-8.5 32t-30.5 13.5t-32.5 -13.5t-18.5 -31.5zM803 -145l-37 45l-234 -203l-176 203l-49 -45l213 -246z " />
<glyph unicode="&#xfe;" horiz-adv-x="1050" d="M981 422q25 186 -84 311q-106 125 -291 125q-217 0 -373 -172l117 830h-84l-270 -1913h84l78 555q113 -172 325 -172q182 0 328 127q141 125 170 309zM899 422q-20 -145 -139 -252q-121 -102 -266 -102q-143 0 -236 104q-90 104 -68 250q18 145 138 252q121 102 266 102 t235 -104q88 -105 70 -250z" />
<glyph unicode="&#xff;" horiz-adv-x="911" d="M776 1065q-6 68 -59 68q-70 -12 -76 -68q0 -35 12 -49q25 -18 45 -19q68 0 78 68zM496 1065q-6 68 -60 68q-70 -12 -76 -68q0 -35 13 -49q25 -18 45 -19q68 0 78 68zM934 846h-92l-406 -668l-221 668h-90l248 -768l-285 -475h94z" />
<glyph unicode="&#x152;" horiz-adv-x="2351" d="M2124 0l12 84h-618l94 672h618l13 90h-619l74 532h618l13 84h-703l-51 -366q-72 193 -238 290q-162 96 -376 97q-334 0 -572 -211q-242 -209 -287 -541q-45 -330 134 -543q180 -209 512 -208q225 0 405 96q190 100 320 291l-52 -367h703zM1524 731q-43 -297 -254 -483 q-213 -184 -510 -185q-293 0 -453 189q-162 186 -121 479t256 481q213 188 506 189q293 0 457 -189q160 -186 119 -481z" />
<glyph unicode="&#x153;" horiz-adv-x="1808" d="M1741 440q29 188 -82 301q-109 115 -295 115q-131 0 -252 -65q-119 -66 -184 -183q-43 113 -137 183q-96 68 -222 67q-182 0 -327 -127q-141 -125 -170 -309q-25 -186 82 -311q111 -125 292 -125q127 0 244 67.5t184 182.5q39 -119 138 -187q96 -66 229 -65q78 0 145 20 q174 51 275 205l-70 35q-88 -113 -178 -150q-76 -29 -160 -28q-170 0 -249 102q-80 100 -56 272h793zM1659 520h-686q119 254 379 254q152 0 235 -90q62 -68 72 -164zM862 422q-23 -150 -139 -252q-119 -102 -264 -102q-147 0 -236 104q-90 106 -69 250q23 150 139 252 q119 102 264 102t236 -104q89 -107 69 -250z" />
<glyph unicode="&#x160;" horiz-adv-x="1019" d="M907 1759l-37 45l-231 -202l-178 202l-49 -45l215 -246zM866 379q25 174 -78 291q-74 82 -256 170q-147 72 -188 110q-78 76 -65 183q18 119 112 188q92 68 211 68q115 0 180 -46q53 -35 84 -100l84 35q-80 193 -336 192q-156 0 -276 -94q-123 -94 -143 -243 q-23 -152 73 -244q53 -57 217 -135q172 -84 222 -133q94 -94 75 -242q-20 -152 -125 -234q-102 -78 -260 -77q-274 0 -311 262l-88 -29q53 -317 389 -317q106 0 193 28q247 91 286 367z" />
<glyph unicode="&#x161;" horiz-adv-x="677" d="M674 1145l-37 45l-234 -203l-176 203l-49 -45l213 -246zM582 231q14 115 -64 183q-41 35 -170 84q-78 29 -108 55q-39 35 -33 94q18 129 166 129q111 0 168 -69l69 53q-86 98 -225 98q-100 0 -176 -63q-74 -61 -86 -148q-12 -102 45 -153q41 -37 137 -74q109 -41 141 -64 q61 -51 52 -125q-25 -164 -217 -163q-86 0 -134 38q-45 35 -69 99l-78 -43q74 -178 270 -178q115 0 205 69q93 69 107 178z" />
<glyph unicode="&#x178;" horiz-adv-x="1046" d="M836 1630q-6 68 -60 68q-70 -12 -76 -68q-2 -31 13 -49q20 -18 45 -18q68 -1 78 67zM555 1630q-6 68 -59 68q-70 -12 -76 -68q-2 -31 12 -49q20 -18 45 -18q68 -1 78 67zM1071 1462h-96l-453 -633l-272 633h-96l313 -731l-102 -731h84l102 731z" />
<glyph unicode="&#x192;" horiz-adv-x="1216" d="M438 1085l-153 -1085h493l13 84h-412l194 1378h-81l-23 -151l-4 6q-43 51 -113 51q-68 0 -125 -51q-59 -53 -67 -119q-10 -68 33 -119q45 -51 112 -51q72 0 125 51zM457 1223l-6 -45q-14 -37 -45 -66q-45 -39 -95 -39q-49 0 -82 39q-35 41 -26 88q6 49 51 88q41 39 92 39 t84 -39q27 -32 27 -65zM299 1165q-2 -18 9 -31.5t30 -13.5q18 0 33.5 13.5t17.5 31.5q4 18 -7 31.5t-32 13.5q-18 0 -32.5 -13.5t-18.5 -31.5zM1237 1198q8 66 -35 119q-45 51 -112 51q-68 0 -125 -51q-59 -53 -68 -119q-10 -68 33 -119q45 -51 112 -51q68 0 125 51 q62 56 70 119zM1194 1200q-8 -49 -51 -88q-45 -39 -94 -39t-82 39q-35 41 -27 88q6 49 51 88q41 39 92 39t84 -39t27 -88zM1038 1159q-4 -18 8.5 -31.5t30.5 -13.5t32.5 13.5t19 32t-8 31.5t-30.5 13t-33 -13.5t-19 -31.5zM610 -305l-28 45q-88 -76 -187 -76q-106 0 -174 80 l-51 -49q74 -90 209 -90q141 0 231 90z" />
<glyph unicode="&#x2c6;" horiz-adv-x="774" d="M625 1016l-211 246l-281 -246l35 -45l233 203l177 -203z" />
<glyph unicode="&#x2dc;" horiz-adv-x="866" d="M774 1096l-53 45q-25 -23 -41 -34t-25 -15l-26 -9h-47l-70 9l-55 24q-10 6 -18.5 10t-14.5 9q-53 20 -105 20q-135 0 -208 -104l51 -45q61 68 137 67q43 0 72 -12l55 -25q57 -37 154 -37q61 0 114 29l35 27z" />
<glyph unicode="&#x2000;" horiz-adv-x="923" />
<glyph unicode="&#x2001;" horiz-adv-x="1849" />
<glyph unicode="&#x2002;" horiz-adv-x="923" />
<glyph unicode="&#x2003;" horiz-adv-x="1849" />
<glyph unicode="&#x2004;" horiz-adv-x="616" />
<glyph unicode="&#x2005;" horiz-adv-x="460" />
<glyph unicode="&#x2006;" horiz-adv-x="307" />
<glyph unicode="&#x2007;" horiz-adv-x="307" />
<glyph unicode="&#x2008;" horiz-adv-x="229" />
<glyph unicode="&#x2009;" horiz-adv-x="368" />
<glyph unicode="&#x200a;" horiz-adv-x="102" />
<glyph unicode="&#x2010;" horiz-adv-x="555" d="M463 461l12 84h-432l-12 -84h432z" />
<glyph unicode="&#x2011;" horiz-adv-x="555" d="M463 461l12 84h-432l-12 -84h432z" />
<glyph unicode="&#x2012;" horiz-adv-x="555" d="M463 461l12 84h-432l-12 -84h432z" />
<glyph unicode="&#x2013;" horiz-adv-x="761" d="M676 500l12 84h-596l-12 -84h596z" />
<glyph unicode="&#x2014;" horiz-adv-x="1263" d="M1165 500l13 84h-1065l-13 -84h1065z" />
<glyph unicode="&#x2018;" horiz-adv-x="333" d="M201 1155l22 148h-67l12 92q6 55 51 96h-41q-41 -27 -51 -96l-35 -240h109z" />
<glyph unicode="&#x2019;" horiz-adv-x="323" d="M227 1268l35 239h-108l-23 -147h68l-13 -92q-6 -55 -51 -97h41q45 46 51 97z" />
<glyph unicode="&#x201a;" horiz-adv-x="323" d="M227 31l35 239h-108l-23 -147h68l-13 -92q-6 -55 -51 -97h41q23 14 33 43q16 23 18 54z" />
<glyph unicode="&#x201c;" horiz-adv-x="585" d="M444 1155l23 148h-68l13 92q6 55 51 96h-41q-41 -27 -51 -96l-35 -240h108zM209 1155l22 148h-67l12 92q6 55 51 96h-41q-41 -27 -51 -96l-35 -240h109z" />
<glyph unicode="&#x201d;" horiz-adv-x="616" d="M469 1268l35 239h-109l-22 -147h67l-12 -92q-6 -55 -51 -97h41q45 46 51 97zM233 1268l35 239h-108l-23 -147h68l-12 -92q-6 -55 -52 -97h41q45 46 51 97z" />
<glyph unicode="&#x201e;" horiz-adv-x="616" d="M469 31l35 239h-109l-22 -147h67l-12 -92q-6 -55 -51 -97h41q23 14 33 43q16 23 18 54zM233 31l35 239h-108l-23 -147h68l-12 -92q-6 -55 -52 -97h41q23 14 33 43q16 23 18 54z" />
<glyph unicode="&#x2020;" horiz-adv-x="501" d="M449 1120l8 56h-138l48 331h-58l-47 -331h-137l-8 -56h137l-113 -805h58l112 805h138z" />
<glyph unicode="&#x2021;" horiz-adv-x="501" d="M422 748l8 57h-137l43 305h137l8 55h-137l47 342h-57l-47 -342h-137l-9 -55h138l-43 -305h-138l-8 -57h137l-86 -611h58l86 611h137z" />
<glyph unicode="&#x2022;" horiz-adv-x="602" d="M438 672q12 68 -32 121q-43 49 -113 49q-72 0 -127 -49q-59 -53 -68 -121q-10 -72 33 -121t113 -49q74 0 129 49t65 121z" />
<glyph unicode="&#x2026;" horiz-adv-x="856" d="M127 55q-6 68 -57 68q-68 -12 -78 -68q0 -35 14 -49q20 -18 43 -18q68 -1 78 67zM420 55q-6 68 -58 68q-68 -12 -77 -68q0 -35 14 -49q20 -18 43 -18q68 -1 78 67zM713 55q-6 68 -58 68q-68 -12 -77 -68q0 -35 14 -49q20 -18 43 -18q68 -1 78 67z" />
<glyph unicode="&#x202f;" horiz-adv-x="368" />
<glyph unicode="&#x2030;" horiz-adv-x="1693" d="M1567 236q12 104 -51.5 180t-169.5 76t-191 -76q-86 -80 -98 -180q-14 -100 51 -177q68 -76 166 -75q106 0 192 73q87 73 101 179zM674 1171q14 102 -51 181q-63 76 -170 75q-106 0 -189 -75q-86 -76 -100 -181q-14 -98 51 -176q68 -76 166 -75q106 0 192 73 q85 69 101 178zM1327 1462h-102l-1284 -1462h102zM952 236q12 104 -51 180t-170 76q-106 0 -190 -76q-86 -80 -99 -180q-14 -100 52 -177q68 -76 165 -75q106 0 193 73q86 73 100 179zM1483 236q-12 -68 -70 -119q-59 -49 -127 -49t-115 47q-41 55 -30 121q8 68 65 120 q57 51 127 52q72 0 115 -52t35 -120zM590 1171q-8 -66 -68 -118q-68 -49 -129 -49q-68 0 -110 51q-45 47 -35 116q8 68 67 121q53 51 127 51q70 0 113 -51q43 -53 35 -121zM868 236q-12 -68 -69 -119q-59 -49 -127 -49t-115 47q-41 55 -31 121q8 68 66 120q57 51 127 52 q72 0 115 -52q42 -52 34 -120z" />
<glyph unicode="&#x2039;" horiz-adv-x="575" d="M528 866l-36 43l-439 -387l324 -379l49 43l-291 336z" />
<glyph unicode="&#x203a;" horiz-adv-x="575" d="M520 522l-334 387l-47 -43l297 -344l-383 -336l35 -43z" />
<glyph unicode="&#x205f;" horiz-adv-x="460" />
<glyph unicode="&#x2122;" horiz-adv-x="690" d="M623 1120l-21 330l-149 -303l-62 303l-121 -330h15l102 283l59 -299l146 299l16 -283h15zM326 1434l2 12h-224l-2 -12h105l-45 -316h14l45 316h105z" />
<glyph unicode="&#xe000;" horiz-adv-x="845" d="M0 845h845v-845h-845v845z" />
<glyph unicode="&#xe001;" horiz-adv-x="1003" d="M911 743q23 168 -77 265q-98 98 -269 98h-274l49 356h-82l-205 -1462h82l53 375h275q166 0 297 102q126 98 151 266zM827 743q-18 -133 -118 -211q-98 -74 -238 -73h-272l80 563h272q139 0 211 -70q83 -78 65 -209z" />
<glyph unicode="&#xe002;" d="M475 858l92 660h-123l-30 -39h110l-86 -621h37zM682 725l6 53h-520l-6 -53h520zM578 487q12 78 -39 127q-49 49 -129 50q-70 0 -134 -46q-61 -43 -79 -110h41q55 119 168 119q59 0 100 -41q43 -37 33 -99q-6 -51 -54 -114l-374 -373h397l4 37h-315l221 215q88 86 104 106 q46 61 56 129z" />
<glyph unicode="&#xe003;" d="M463 858l92 660h-123l-31 -39h111l-86 -621h37zM678 725l6 53h-520l-6 -53h520zM500 123l6 37h-57l71 506l-454 -543h337l-16 -125h39l16 125h58zM410 160h-271l324 383z" />
<glyph unicode="&#xe004;" d="M401 858l95 660h-123l-31 -39h111l-88 -621h36z" />
<glyph unicode="&#xe005;" d="M635 1038q18 139 -105 176q127 35 144 152q12 72 -33 123q-45 45 -119 45q-72 0 -127 -43q-55 -41 -71 -113h43q33 117 149 117q55 0 90 -37q31 -35 23 -92l-15 -51l-30 -39q-39 -35 -99 -35h-39l-8 -53h39l41 -8q18 -8 39 -25q45 -41 37 -117q-10 -63 -57 -104 q-51 -41 -111 -41q-55 0 -86 35q-33 37 -39 71h-41q18 -143 160 -143q84 0 143.5 51t71.5 131zM664 725l8 53h-522l-9 -53h523zM508 123l4 37h-57l71 506l-452 -543h338l-19 -125h39l19 125h57zM416 160h-271l326 383z" />
<glyph unicode="&#xe006;" d="M573 1038q23 139 -104 176q127 33 145 152q8 76 -32 123q-49 45 -121 45t-127 -43q-53 -39 -70 -113h43q33 117 150 117q57 0 88 -37q31 -35 24 -92l-16 -51l-29 -39q-41 -35 -100 -35h-39l-6 -53h39l41 -8q14 -6 37 -25q49 -41 36 -117q-10 -63 -57 -104 q-51 -41 -110 -41q-53 0 -84 35q-33 33 -39 71h-41q18 -143 159 -143q84 0 142 51q63 49 71 131z" />
<glyph unicode="&#xe007;" d="M631 1343q10 80 -41 127q-49 49 -127 50q-74 0 -133 -45q-63 -43 -82 -111h41q55 119 168 119q59 0 100 -41q41 -35 35 -99q-10 -53 -55 -114l-375 -373h397l6 37h-315l221 215l67 68q26 27 35 38q50 66 58 129z" />
</font>
</defs>
</svg>
